<?xml version="1.0" encoding="utf-8" standalone="no"?>
<!DOCTYPE svg PUBLIC "-//W3C//DTD SVG 1.1//EN"
  "http://www.w3.org/Graphics/SVG/1.1/DTD/svg11.dtd">
<!-- Created with matplotlib (https://matplotlib.org/) -->
<svg height="432pt" version="1.1" viewBox="0 0 309.6 432" width="309.6pt" xmlns="http://www.w3.org/2000/svg" xmlns:xlink="http://www.w3.org/1999/xlink">
 <defs>
  <style type="text/css">
*{stroke-linecap:butt;stroke-linejoin:round;white-space:pre;}
  </style>
 </defs>
 <g id="figure_1">
  <g id="patch_1">
   <path d="M 0 432 
L 309.6 432 
L 309.6 0 
L 0 0 
z
" style="fill:#ffffff;"/>
  </g>
  <g id="axes_1">
   <g id="patch_2">
    <path clip-path="url(#p525fe0552b)" d="M 0 432 
L 123.84 432 
L 123.84 408 
L 0 408 
z
" style="fill:#fe01b1;stroke:#fe01b1;stroke-linejoin:miter;"/>
   </g>
   <g id="patch_3">
    <path clip-path="url(#p525fe0552b)" d="M 0 408 
L 123.84 408 
L 123.84 384 
L 0 384 
z
" style="fill:#be03fd;stroke:#be03fd;stroke-linejoin:miter;"/>
   </g>
   <g id="patch_4">
    <path clip-path="url(#p525fe0552b)" d="M 0 384 
L 123.84 384 
L 123.84 360 
L 0 360 
z
" style="fill:#069af3;stroke:#069af3;stroke-linejoin:miter;"/>
   </g>
   <g id="patch_5">
    <path clip-path="url(#p525fe0552b)" d="M 0 360 
L 123.84 360 
L 123.84 336 
L 0 336 
z
" style="fill:#02d8e9;stroke:#02d8e9;stroke-linejoin:miter;"/>
   </g>
   <g id="patch_6">
    <path clip-path="url(#p525fe0552b)" d="M 0 336 
L 123.84 336 
L 123.84 312 
L 0 312 
z
" style="fill:#980002;stroke:#980002;stroke-linejoin:miter;"/>
   </g>
   <g id="patch_7">
    <path clip-path="url(#p525fe0552b)" d="M 0 312 
L 123.84 312 
L 123.84 288 
L 0 288 
z
" style="fill:#c65102;stroke:#c65102;stroke-linejoin:miter;"/>
   </g>
   <g id="patch_8">
    <path clip-path="url(#p525fe0552b)" d="M 0 288 
L 123.84 288 
L 123.84 264 
L 0 264 
z
" style="fill:#dbb40c;stroke:#dbb40c;stroke-linejoin:miter;"/>
   </g>
   <g id="patch_9">
    <path clip-path="url(#p525fe0552b)" d="M 0 264 
L 123.84 264 
L 123.84 240 
L 0 240 
z
" style="fill:#3f9b0b;stroke:#3f9b0b;stroke-linejoin:miter;"/>
   </g>
   <g id="patch_10">
    <path clip-path="url(#p525fe0552b)" d="M 0 240 
L 123.84 240 
L 123.84 216 
L 0 216 
z
" style="fill:#01889f;stroke:#01889f;stroke-linejoin:miter;"/>
   </g>
   <g id="patch_11">
    <path clip-path="url(#p525fe0552b)" d="M 0 216 
L 123.84 216 
L 123.84 192 
L 0 192 
z
" style="fill:#0343df;stroke:#0343df;stroke-linejoin:miter;"/>
   </g>
   <g id="patch_12">
    <path clip-path="url(#p525fe0552b)" d="M 0 192 
L 123.84 192 
L 123.84 168 
L 0 168 
z
" style="fill:#7e1e9c;stroke:#7e1e9c;stroke-linejoin:miter;"/>
   </g>
   <g id="patch_13">
    <path clip-path="url(#p525fe0552b)" d="M 0 168 
L 123.84 168 
L 123.84 144 
L 0 144 
z
" style="fill:#c20078;stroke:#c20078;stroke-linejoin:miter;"/>
   </g>
   <g id="patch_14">
    <path clip-path="url(#p525fe0552b)" d="M 0 144 
L 123.84 144 
L 123.84 120 
L 0 120 
z
" style="fill:#76cd26;stroke:#76cd26;stroke-linejoin:miter;"/>
   </g>
   <g id="patch_15">
    <path clip-path="url(#p525fe0552b)" d="M 0 120 
L 123.84 120 
L 123.84 96 
L 0 96 
z
" style="fill:#fffd01;stroke:#fffd01;stroke-linejoin:miter;"/>
   </g>
   <g id="patch_16">
    <path clip-path="url(#p525fe0552b)" d="M 0 96 
L 123.84 96 
L 123.84 72 
L 0 72 
z
" style="fill:#ff9408;stroke:#ff9408;stroke-linejoin:miter;"/>
   </g>
   <g id="patch_17">
    <path clip-path="url(#p525fe0552b)" d="M 0 72 
L 123.84 72 
L 123.84 48 
L 0 48 
z
" style="fill:#ff000d;stroke:#ff000d;stroke-linejoin:miter;"/>
   </g>
   <g id="line2d_1">
    <path clip-path="url(#p525fe0552b)" d="M 0 432 
L 309.6 432 
" style="fill:none;stroke:#000000;stroke-linecap:square;stroke-width:1.5;"/>
   </g>
   <g id="line2d_2">
    <path clip-path="url(#p525fe0552b)" d="M 0 408 
L 309.6 408 
" style="fill:none;stroke:#000000;stroke-linecap:square;stroke-width:1.5;"/>
   </g>
   <g id="line2d_3">
    <path clip-path="url(#p525fe0552b)" d="M 0 384 
L 309.6 384 
" style="fill:none;stroke:#000000;stroke-linecap:square;stroke-width:1.5;"/>
   </g>
   <g id="line2d_4">
    <path clip-path="url(#p525fe0552b)" d="M 0 360 
L 309.6 360 
" style="fill:none;stroke:#000000;stroke-linecap:square;stroke-width:1.5;"/>
   </g>
   <g id="line2d_5">
    <path clip-path="url(#p525fe0552b)" d="M 0 336 
L 309.6 336 
" style="fill:none;stroke:#000000;stroke-linecap:square;stroke-width:1.5;"/>
   </g>
   <g id="line2d_6">
    <path clip-path="url(#p525fe0552b)" d="M 0 312 
L 309.6 312 
" style="fill:none;stroke:#000000;stroke-linecap:square;stroke-width:1.5;"/>
   </g>
   <g id="line2d_7">
    <path clip-path="url(#p525fe0552b)" d="M 0 288 
L 309.6 288 
" style="fill:none;stroke:#000000;stroke-linecap:square;stroke-width:1.5;"/>
   </g>
   <g id="line2d_8">
    <path clip-path="url(#p525fe0552b)" d="M 0 264 
L 309.6 264 
" style="fill:none;stroke:#000000;stroke-linecap:square;stroke-width:1.5;"/>
   </g>
   <g id="line2d_9">
    <path clip-path="url(#p525fe0552b)" d="M 0 240 
L 309.6 240 
" style="fill:none;stroke:#000000;stroke-linecap:square;stroke-width:1.5;"/>
   </g>
   <g id="line2d_10">
    <path clip-path="url(#p525fe0552b)" d="M 0 216 
L 309.6 216 
" style="fill:none;stroke:#000000;stroke-linecap:square;stroke-width:1.5;"/>
   </g>
   <g id="line2d_11">
    <path clip-path="url(#p525fe0552b)" d="M 0 192 
L 309.6 192 
" style="fill:none;stroke:#000000;stroke-linecap:square;stroke-width:1.5;"/>
   </g>
   <g id="line2d_12">
    <path clip-path="url(#p525fe0552b)" d="M 0 168 
L 309.6 168 
" style="fill:none;stroke:#000000;stroke-linecap:square;stroke-width:1.5;"/>
   </g>
   <g id="line2d_13">
    <path clip-path="url(#p525fe0552b)" d="M 0 144 
L 309.6 144 
" style="fill:none;stroke:#000000;stroke-linecap:square;stroke-width:1.5;"/>
   </g>
   <g id="line2d_14">
    <path clip-path="url(#p525fe0552b)" d="M 0 120 
L 309.6 120 
" style="fill:none;stroke:#000000;stroke-linecap:square;stroke-width:1.5;"/>
   </g>
   <g id="line2d_15">
    <path clip-path="url(#p525fe0552b)" d="M 0 96 
L 309.6 96 
" style="fill:none;stroke:#000000;stroke-linecap:square;stroke-width:1.5;"/>
   </g>
   <g id="line2d_16">
    <path clip-path="url(#p525fe0552b)" d="M 0 72 
L 309.6 72 
" style="fill:none;stroke:#000000;stroke-linecap:square;stroke-width:1.5;"/>
   </g>
   <g id="text_1">
    <!--   type 16: bright magenta (TeS-ESTJ) -->
    <defs>
     <path id="STIXTwoText-32"/>
     <path d="M 29.296875 9 
C 26.796875 6.203125 25.5 4.90625 22.296875 4.90625 
C 18.40625 4.90625 17.5 7.296875 17.5 14.40625 
L 17.5 43.09375 
L 28.796875 43.09375 
L 28.796875 47.296875 
L 17.5 47.296875 
L 17.59375 61 
L 15 61 
C 11.40625 52.5 8.40625 48.296875 3.703125 45.40625 
L 3.703125 43.09375 
L 9.203125 43.09375 
L 9.203125 11.59375 
C 9.203125 2.59375 12.09375 -1 18.796875 -1 
C 25.203125 -1 27.296875 2 31.203125 7.40625 
z
" id="STIXTwoText-116"/>
     <path d="M 49.296875 47.296875 
L 32.296875 47.296875 
L 32.296875 44.40625 
C 35.59375 44.40625 37.90625 43.90625 37.90625 41.90625 
C 37.90625 41.09375 37.59375 40.203125 37.40625 39.40625 
L 27.796875 10.09375 
L 27.09375 10.09375 
L 25.703125 15.296875 
L 15.90625 37.296875 
C 15.296875 38.703125 14.5 40.40625 14.5 41.59375 
C 14.5 43.40625 15.703125 44.296875 20.203125 44.296875 
L 20.203125 47.296875 
L -1.203125 47.296875 
L -1.203125 44.40625 
C 2.40625 44.40625 3.796875 43.09375 4.796875 40.796875 
L 19.5 8.703125 
C 20.703125 6 22.5 1.796875 22.5 0.5 
C 22.5 -2.40625 16.796875 -14.796875 13.59375 -14.796875 
C 11.09375 -14.796875 9 -12.59375 5.5 -12.59375 
C 2.796875 -12.59375 0.796875 -13.90625 0.796875 -16.90625 
C 0.796875 -20.703125 3.703125 -22.09375 8.203125 -22.09375 
C 16.296875 -22.09375 21.203125 -16.90625 26.796875 -2.203125 
L 42.40625 38.796875 
C 43.796875 42.703125 45.296875 44.40625 49.296875 44.40625 
z
" id="STIXTwoText-121"/>
     <path d="M 17.59375 48.203125 
L 15.09375 48.203125 
L 2.5 45.40625 
L 2.5 42.5 
C 2.5 42.5 4.40625 42.703125 5.703125 42.703125 
C 9 42.703125 9.5 41.40625 9.5 37.59375 
L 9.5 -11.90625 
C 9.5 -17.5 8.5 -19.203125 2.203125 -19.203125 
L 2.203125 -22 
L 27.5 -22 
L 27.5 -19.09375 
C 19.703125 -19.09375 17.796875 -17.796875 17.796875 -11.296875 
L 17.796875 1.796875 
L 18.203125 1.796875 
C 21.09375 -0.203125 24.5 -1 28.296875 -1 
C 40.296875 -1 50.203125 9.09375 50.203125 26.09375 
C 50.203125 39.203125 43.296875 48.5 33.40625 48.5 
C 27.5 48.5 22.703125 45.40625 17.90625 39.796875 
L 17.59375 39.796875 
z
M 17.796875 35.59375 
C 19.703125 38.09375 24 41.703125 29.296875 41.703125 
C 36.703125 41.703125 41.09375 35.90625 41.09375 23.296875 
C 41.09375 9.40625 35.796875 2.90625 28.796875 2.90625 
C 23.203125 2.90625 19.703125 7.40625 17.796875 9.5 
z
" id="STIXTwoText-112"/>
     <path d="M 41.5 14.296875 
C 38.296875 10.09375 35.203125 6.5 27.09375 6.5 
C 19.09375 6.5 11.5 12.796875 11.5 26.59375 
L 43.09375 26.59375 
C 42.59375 40.59375 35.40625 48.5 24.5 48.5 
C 12.796875 48.5 3.40625 40.5 3.40625 23.796875 
C 3.40625 7.703125 12.703125 -1 24.703125 -1 
C 35 -1 39.796875 5.296875 43.40625 12.90625 
z
M 11.40625 30.296875 
C 12.203125 39.59375 16.203125 44.5 23 44.5 
C 30.09375 44.5 33.40625 37.703125 33.703125 30.296875 
z
" id="STIXTwoText-101"/>
     <path d="M 42.59375 0 
L 42.59375 2.796875 
C 33.40625 2.796875 29.703125 4.59375 29.703125 9.5 
L 29.703125 63.90625 
L 26.796875 63.90625 
L 7.40625 58.40625 
L 7.40625 55.09375 
C 10.5 56.09375 15.59375 56.703125 17.59375 56.703125 
C 20.09375 56.703125 20.90625 55.296875 20.90625 51.796875 
L 20.90625 9.5 
C 20.90625 4.5 17.40625 2.796875 8 2.796875 
L 8 0 
z
" id="STIXTwoText-49"/>
     <path d="M 41.5 64.59375 
C 20 63.703125 4.5 49.796875 4.5 25.703125 
C 4.5 11 11 -1.203125 25.90625 -1.203125 
C 38.5 -1.203125 45.703125 6.703125 45.703125 20.296875 
C 45.703125 33.40625 38.59375 41.296875 27.703125 41.296875 
C 22.5 41.296875 18.796875 39.09375 14.703125 35.09375 
L 14 35.203125 
C 16.5 49.796875 27.703125 59.59375 41.703125 61.703125 
z
M 37 19.5 
C 37 6.796875 33 2.296875 26.296875 2.296875 
C 17.59375 2.296875 13.5 11.203125 13.5 23.59375 
C 13.5 32.296875 18.90625 35.5 24.703125 35.5 
C 33 35.5 37 28.5 37 19.5 
z
" id="STIXTwoText-54"/>
     <path d="M 19.296875 42.296875 
C 19.296875 45.59375 17.203125 48.5 13.40625 48.5 
C 9.703125 48.5 7.5 45.703125 7.5 42.40625 
C 7.5 39 9.40625 36.59375 13.296875 36.59375 
C 17.203125 36.59375 19.296875 39.203125 19.296875 42.296875 
z
M 19.296875 4.90625 
C 19.296875 8.203125 17.203125 11.09375 13.40625 11.09375 
C 9.703125 11.09375 7.5 8.296875 7.5 5 
C 7.5 1.59375 9.40625 -0.796875 13.296875 -0.796875 
C 17.203125 -0.796875 19.296875 1.796875 19.296875 4.90625 
z
" id="STIXTwoText-58"/>
     <path d="M 16.296875 70.59375 
L 13.703125 70.59375 
L 0.796875 67.09375 
L 0.796875 64.296875 
C 0.796875 64.296875 2 64.5 3.59375 64.5 
C 7.40625 64.5 8 63.703125 8 59.203125 
L 8 3 
C 10.40625 1.703125 16.203125 -1 24.703125 -1 
C 38.59375 -1 48.703125 8.40625 48.703125 26.296875 
C 48.703125 39.296875 41.90625 48.5 32 48.5 
C 25.296875 48.5 20.09375 44.203125 16.59375 40 
L 16.296875 40 
z
M 16.296875 35.59375 
C 18.09375 38 22.5 41.703125 27.59375 41.703125 
C 37.09375 41.703125 39.59375 32.703125 39.59375 23.09375 
C 39.59375 12 36 3.09375 26.5 3.09375 
C 21.203125 3.09375 18.203125 5.5 16.296875 7.796875 
z
" id="STIXTwoText-98"/>
     <path d="M 18.296875 48.203125 
L 15.90625 48.203125 
L 3.5 45.203125 
L 3.5 42.40625 
C 3.5 42.40625 4.59375 42.59375 6.59375 42.59375 
C 10.203125 42.59375 10.203125 40.796875 10.203125 37.203125 
L 10.203125 9.703125 
C 10.203125 4.09375 9.5 2.90625 2.90625 2.90625 
L 2.90625 0 
L 27.90625 0 
L 27.90625 2.90625 
C 20.40625 2.90625 18.5 3.90625 18.5 10.203125 
L 18.5 33 
C 20.90625 37 24.09375 41.203125 26.40625 41.203125 
C 27.59375 41.203125 29.59375 37.796875 32.90625 37.796875 
C 35.09375 37.796875 37.296875 39.40625 37.296875 43.203125 
C 37.296875 46.59375 35.40625 48.796875 31.5 48.796875 
C 26.703125 48.796875 23.703125 45.296875 18.59375 37.90625 
L 18.296875 37.90625 
z
" id="STIXTwoText-114"/>
     <path d="M 14.5 69.296875 
C 11 69.296875 8.796875 66.703125 8.796875 63.703125 
C 8.796875 60.59375 11.09375 58 14.5 58 
C 18 58 20.203125 60.59375 20.203125 63.703125 
C 20.203125 66.703125 18 69.296875 14.5 69.296875 
z
M 25.703125 2.796875 
C 19 2.796875 18.5 4.296875 18.5 10.09375 
L 18.5 48.203125 
L 15.90625 48.203125 
L 3.296875 45.40625 
L 3.296875 42.5 
C 3.296875 42.5 4.40625 42.703125 5.796875 42.703125 
C 8.703125 42.703125 10.203125 42.296875 10.203125 38 
L 10.203125 10.09375 
C 10.203125 4.40625 9.90625 2.796875 3.203125 2.796875 
L 3.203125 0 
L 25.703125 0 
z
" id="STIXTwoText-105"/>
     <path d="M 12.796875 18.40625 
C 8.09375 14.796875 4.59375 10.59375 4.59375 7 
C 4.59375 4.203125 6.796875 1.5 10.203125 -0.203125 
L 10.203125 -0.59375 
C 4.796875 -5.796875 2.09375 -9.203125 2.09375 -12.5 
C 2.09375 -18 6 -23.5 19.09375 -23.5 
C 31.703125 -23.5 46.5 -18.90625 46.5 -5.5 
C 46.5 6 36.90625 6.40625 24.296875 6.40625 
C 15.09375 6.40625 12.5 7.40625 12.5 10.40625 
C 12.5 12.09375 14.09375 15.703125 15.09375 17.09375 
C 17.703125 16.203125 20.5 15.59375 23.703125 15.59375 
C 34.203125 15.59375 41.40625 21.5 41.40625 30.796875 
C 41.40625 35.796875 39.203125 39.09375 37.796875 41.09375 
L 37.796875 41.59375 
L 47.203125 41.296875 
L 47.203125 46.703125 
L 34.296875 46 
C 34.296875 46 29.796875 48.5 23.203125 48.5 
C 12.59375 48.5 5.09375 42.203125 5.09375 32.203125 
C 5.09375 25.703125 8 21.40625 12.796875 18.59375 
z
M 22.5 44.90625 
C 28.90625 44.90625 32.5 39.5 32.5 31.40625 
C 32.5 21.90625 28.796875 19.09375 23.796875 19.09375 
C 17.296875 19.09375 13.90625 24 13.90625 32.59375 
C 13.90625 41 17.296875 44.90625 22.5 44.90625 
z
M 12.703125 -1 
C 14.09375 -1 16 -1.09375 24 -1.203125 
C 30.703125 -1.296875 41.40625 -1.09375 41.40625 -8.296875 
C 41.40625 -12.59375 36.703125 -17.796875 24.90625 -17.796875 
C 14.703125 -17.796875 9.90625 -14.90625 9.90625 -9.09375 
C 9.90625 -7 10.59375 -4.703125 12.703125 -1 
z
" id="STIXTwoText-103"/>
     <path d="M 18.296875 35.90625 
C 23.203125 40.40625 26.796875 42.09375 30.703125 42.09375 
C 38.796875 42.09375 39.90625 35.203125 39.90625 27 
L 39.90625 9.703125 
C 39.90625 4.90625 39.5 2.90625 32.59375 2.90625 
L 32.59375 0 
L 55.59375 0 
L 55.59375 2.90625 
C 49.296875 2.90625 48.203125 4.796875 48.203125 10.09375 
L 48.203125 30 
C 48.203125 38.203125 46.296875 48.5 34.796875 48.5 
C 29.5 48.5 24.90625 46.203125 18.59375 40.296875 
L 18.296875 40.296875 
L 18.296875 70.59375 
L 15.59375 70.59375 
L 2.203125 67.09375 
L 2.203125 64.296875 
C 2.203125 64.296875 3.5 64.5 5.09375 64.5 
C 7.796875 64.5 10 64 10 60.5 
L 10 9.296875 
C 10 3.703125 8.203125 2.90625 3 2.90625 
L 3 0 
L 25.703125 0 
L 25.703125 2.90625 
C 18.796875 2.90625 18.296875 4.5 18.296875 9.703125 
z
" id="STIXTwoText-104"/>
     <path d="M 18.5 35.703125 
C 21.40625 38.40625 25.796875 42.09375 31 42.09375 
C 35.59375 42.09375 39 39.90625 39 31.40625 
L 39 11.59375 
C 39 4.59375 38.40625 2.90625 31.296875 2.90625 
L 31.296875 0 
L 55 0 
L 55 2.90625 
C 47.796875 2.90625 47.296875 4.703125 47.296875 11.59375 
L 47.296875 35.90625 
C 50.59375 38.703125 54.703125 42.09375 58.796875 42.09375 
C 63.5 42.09375 67.40625 39.90625 67.40625 30.796875 
L 67.40625 11.59375 
C 67.40625 5.5 67.09375 2.90625 60.296875 2.90625 
L 60.296875 0 
L 82.90625 0 
L 82.90625 2.90625 
C 76 2.90625 75.703125 5.296875 75.703125 11.59375 
L 75.703125 32 
C 75.703125 44.09375 70.59375 48.5 62.796875 48.5 
C 57.5 48.5 52.40625 45.59375 46.90625 40.203125 
L 46.5 40.203125 
C 44.5 45 41.09375 48.5 35.40625 48.5 
C 28.59375 48.5 24 44.796875 18.59375 40.09375 
L 18.203125 40.09375 
L 18.203125 48.203125 
L 15.796875 48.203125 
L 3.296875 45.296875 
L 3.296875 42.40625 
C 3.296875 42.40625 4.5 42.59375 6 42.59375 
C 8.796875 42.59375 10.203125 41.703125 10.203125 38.09375 
L 10.203125 10.09375 
C 10.203125 4.09375 9.5 2.90625 3.203125 2.90625 
L 3.203125 0 
L 26 0 
L 26 2.90625 
C 19.796875 2.90625 18.5 4.09375 18.5 9.703125 
z
" id="STIXTwoText-109"/>
     <path d="M 30.796875 6.203125 
C 31.40625 1.796875 32.40625 -0.5 36.796875 -0.5 
C 41.90625 -0.5 44.296875 1.59375 47.59375 6.40625 
L 46.09375 8 
C 44.703125 6.5 43.296875 5.5 41.40625 5.5 
C 39.296875 5.5 38.40625 6.296875 38.40625 10.40625 
L 38.40625 33.09375 
C 38.40625 43.5 34.296875 48.5 23.40625 48.5 
C 12.5 48.5 5.796875 43.09375 5.796875 37.5 
C 5.796875 34.203125 8 32.703125 10 32.703125 
C 12.796875 32.703125 14.40625 34.203125 14.40625 37.296875 
C 14.40625 43.296875 15.40625 45.40625 21.09375 45.40625 
C 27.09375 45.40625 30.09375 42.09375 30.09375 33.40625 
L 30.09375 29 
C 21.5 26.296875 3.796875 23.703125 3.796875 10.5 
C 3.796875 4.09375 8 -0.703125 15.703125 -0.703125 
C 22.09375 -0.703125 25.703125 2.09375 30.40625 6.203125 
z
M 30.09375 9.203125 
C 26.703125 6.40625 23.09375 4.796875 19.796875 4.796875 
C 15.5 4.796875 12.59375 7.90625 12.59375 12.90625 
C 12.59375 20.703125 21 23.40625 30.09375 25.703125 
z
" id="STIXTwoText-97"/>
     <path d="M 48.09375 30.703125 
C 48.09375 42.203125 43.796875 48.5 34.703125 48.5 
C 28.40625 48.5 24 44.90625 18.59375 40.09375 
L 18.203125 40.09375 
L 18.296875 48.203125 
L 16 48.203125 
L 3.296875 45.296875 
L 3.296875 42.40625 
C 3.296875 42.40625 4.296875 42.59375 6 42.59375 
C 8.703125 42.59375 10.203125 41.796875 10.203125 38.203125 
L 10.203125 10.09375 
C 10.203125 4.5 9.90625 2.796875 3.203125 2.796875 
L 3.203125 0 
L 26.09375 0 
L 26.09375 2.796875 
C 18.90625 2.796875 18.5 4.5 18.5 10.09375 
L 18.5 35.796875 
C 21.5 38.5 25.203125 42.09375 30.59375 42.09375 
C 35.09375 42.09375 39.796875 40.203125 39.796875 28.203125 
L 39.796875 10.09375 
C 39.796875 4.5 39.5 2.796875 32.40625 2.796875 
L 32.40625 0 
L 55.5 0 
L 55.5 2.796875 
C 48.796875 2.796875 48.09375 4.5 48.09375 10.09375 
z
" id="STIXTwoText-110"/>
     <path d="M 3 27.40625 
C 3 5.40625 13.5 -10.296875 29.59375 -18.59375 
L 31.203125 -15.796875 
C 16.59375 -6.203125 11.203125 7.296875 11.203125 27.40625 
C 11.203125 47.296875 16.59375 60.703125 31.203125 70.40625 
L 29.59375 73 
C 13.5 64.796875 3 49.203125 3 27.40625 
z
" id="STIXTwoText-40"/>
     <path d="M 58.703125 47.703125 
L 57.90625 65.703125 
L 2.59375 65.703125 
L 1.5 47.703125 
L 4.59375 47.703125 
C 6.703125 58.59375 8.09375 61.203125 19.09375 61.203125 
L 25.5 61.203125 
L 25.5 13.09375 
C 25.5 4 24.09375 3 15.703125 3 
L 15.703125 0 
L 44.703125 0 
L 44.703125 3 
C 36.09375 3 34.796875 4 34.796875 13.09375 
L 34.796875 61.203125 
L 41.09375 61.203125 
C 52.203125 61.203125 53.40625 58.59375 55.59375 47.703125 
z
" id="STIXTwoText-84"/>
     <path d="M 44 46.703125 
L 43.296875 66.703125 
L 40.703125 66.703125 
C 40.203125 64.59375 39.203125 63.796875 37.59375 63.796875 
C 35.203125 63.796875 33 66.90625 23.90625 66.90625 
C 13.5 66.796875 4.90625 61.203125 4.90625 50.703125 
C 4.90625 40.203125 13 35.40625 21 30.796875 
C 29.203125 26.09375 37.59375 22.59375 37.59375 13.796875 
C 37.59375 6.203125 32.90625 3.203125 25.40625 3.203125 
C 15.203125 3.09375 10.09375 6.296875 6.59375 20.09375 
L 3.5 20.09375 
L 4.40625 -1.5 
L 7.5 -1.5 
C 7.59375 0.5 8.796875 1.796875 10.203125 1.796875 
C 12.5 1.796875 16.40625 -1.203125 26.796875 -1.203125 
C 38.40625 -1.203125 47.09375 5.09375 47.09375 16.703125 
C 47.09375 28.59375 37.203125 33.09375 28.296875 38.09375 
C 20.796875 42.40625 13.59375 46 13.59375 53.5 
C 13.59375 59.703125 17.5 62.90625 24.296875 62.90625 
C 34.40625 63 38.203125 57.703125 41 46.703125 
z
" id="STIXTwoText-83"/>
     <path d="M 27 21.796875 
L 27 28.296875 
L 4.5 28.296875 
L 4.5 21.796875 
z
" id="STIXTwoText-45"/>
     <path d="M 59.796875 18.59375 
L 56.59375 18.59375 
C 52.703125 6.703125 50.90625 4.296875 35.40625 4.40625 
L 22.5 4.40625 
L 22.5 31.90625 
L 34.203125 31.90625 
C 43.40625 31.90625 45.40625 30.796875 45.40625 22.59375 
L 48.59375 22.59375 
L 48.59375 45.796875 
L 45.40625 45.796875 
C 45.40625 37.703125 43.40625 35.796875 34.203125 35.796875 
L 22.5 35.796875 
L 22.5 61.203125 
L 37.203125 61.203125 
C 49.5 61.203125 52 59.296875 53.5 49.296875 
L 56.703125 49.296875 
L 56.09375 65.703125 
L 3.59375 65.703125 
L 3.59375 62.703125 
C 11.703125 62.703125 13.296875 61.09375 13.296875 53.5 
L 13.296875 11.796875 
C 13.296875 4 11.703125 3 3.59375 3 
L 3.59375 0 
L 57 0 
z
" id="STIXTwoText-69"/>
     <path d="M 19.09375 12.296875 
C 19.09375 5.296875 18.296875 2.296875 14.40625 2.296875 
C 9.796875 2.296875 10.296875 11.59375 4.40625 11.59375 
C 1.59375 11.59375 0 9.703125 0 6.703125 
C 0 1.296875 5.40625 -1.203125 11.90625 -1.203125 
C 21.40625 -1.203125 28.296875 2 28.296875 15.203125 
L 28.296875 52.5 
C 28.296875 60.296875 29.203125 62.703125 37.5 62.703125 
L 37.5 65.703125 
L 9.296875 65.703125 
L 9.296875 62.703125 
C 18.796875 62.703125 19.09375 60.296875 19.09375 52.5 
z
" id="STIXTwoText-74"/>
     <path d="M 31.296875 27.40625 
C 31.296875 49.203125 20.796875 64.796875 4.703125 73 
L 3.09375 70.40625 
C 17.703125 60.703125 23.09375 47.296875 23.09375 27.40625 
C 23.09375 7.296875 17.703125 -6.203125 3.09375 -15.796875 
L 4.703125 -18.59375 
C 20.796875 -10.296875 31.296875 5.40625 31.296875 27.40625 
z
" id="STIXTwoText-41"/>
    </defs>
    <g transform="translate(123.84 422.97)scale(0.12 -0.12)">
     <use xlink:href="#STIXTwoText-32"/>
     <use x="23.499985" xlink:href="#STIXTwoText-32"/>
     <use x="46.999969" xlink:href="#STIXTwoText-116"/>
     <use x="78.499954" xlink:href="#STIXTwoText-121"/>
     <use x="126.799942" xlink:href="#STIXTwoText-112"/>
     <use x="180.499939" xlink:href="#STIXTwoText-101"/>
     <use x="226.899933" xlink:href="#STIXTwoText-32"/>
     <use x="250.399918" xlink:href="#STIXTwoText-49"/>
     <use x="299.899902" xlink:href="#STIXTwoText-54"/>
     <use x="349.399887" xlink:href="#STIXTwoText-58"/>
     <use x="375.499878" xlink:href="#STIXTwoText-32"/>
     <use x="398.999863" xlink:href="#STIXTwoText-98"/>
     <use x="451.19986" xlink:href="#STIXTwoText-114"/>
     <use x="489.199844" xlink:href="#STIXTwoText-105"/>
     <use x="517.699829" xlink:href="#STIXTwoText-103"/>
     <use x="566.099823" xlink:href="#STIXTwoText-104"/>
     <use x="623.79982" xlink:href="#STIXTwoText-116"/>
     <use x="655.299805" xlink:href="#STIXTwoText-32"/>
     <use x="678.799789" xlink:href="#STIXTwoText-109"/>
     <use x="763.999771" xlink:href="#STIXTwoText-97"/>
     <use x="811.999756" xlink:href="#STIXTwoText-103"/>
     <use x="860.39975" xlink:href="#STIXTwoText-101"/>
     <use x="906.799744" xlink:href="#STIXTwoText-110"/>
     <use x="964.399734" xlink:href="#STIXTwoText-116"/>
     <use x="995.899719" xlink:href="#STIXTwoText-97"/>
     <use x="1043.899704" xlink:href="#STIXTwoText-32"/>
     <use x="1067.399689" xlink:href="#STIXTwoText-40"/>
     <use x="1101.699677" xlink:href="#STIXTwoText-84"/>
     <use x="1161.999664" xlink:href="#STIXTwoText-101"/>
     <use x="1208.399658" xlink:href="#STIXTwoText-83"/>
     <use x="1258.799652" xlink:href="#STIXTwoText-45"/>
     <use x="1290.299637" xlink:href="#STIXTwoText-69"/>
     <use x="1352.899628" xlink:href="#STIXTwoText-83"/>
     <use x="1403.299622" xlink:href="#STIXTwoText-84"/>
     <use x="1463.599609" xlink:href="#STIXTwoText-74"/>
     <use x="1503.1996" xlink:href="#STIXTwoText-41"/>
    </g>
   </g>
   <g id="text_2">
    <!--   type 15: bright purple (SiT-ISTP) -->
    <defs>
     <path d="M 41.703125 54.90625 
L 43.296875 63 
L 15.90625 63 
L 9.703125 36.90625 
L 10.90625 35.40625 
C 24.09375 35.09375 37 32.703125 37 17.90625 
C 37 7.5 30.703125 3.703125 23.59375 3.703125 
C 17.203125 3.703125 13.90625 8.59375 9.90625 8.59375 
C 7.40625 8.59375 5.90625 6.59375 5.90625 4.296875 
C 5.90625 0.59375 9.703125 -1.296875 17.40625 -1.296875 
C 33.296875 -1.296875 44.296875 6.5 44.296875 21.90625 
C 44.296875 37.59375 32 42.296875 15.5 43.5 
L 18.203125 54.90625 
z
" id="STIXTwoText-53"/>
     <path d="M 54 4.5 
L 53 4.5 
C 48.203125 4.5 47 5.203125 47 11.09375 
L 47 47.796875 
L 44.59375 47.796875 
L 30.59375 46.296875 
L 30.59375 43.5 
C 37 43.5 38.703125 43 38.703125 37.703125 
L 38.703125 11.40625 
C 34.703125 7.90625 31.5 5.40625 26.40625 5.40625 
C 21.203125 5.40625 17.40625 8.40625 17.40625 18.59375 
L 17.40625 47.796875 
L 15.203125 47.796875 
L 2.296875 46.296875 
L 2.296875 43.5 
C 7.703125 43.40625 9.09375 43 9.09375 37.59375 
L 9.09375 17.296875 
C 9.09375 3.703125 13.90625 -1 22.203125 -1 
C 28.59375 -1 33.296875 2 38.59375 7.203125 
L 39.09375 7.203125 
L 39.09375 -0.5 
L 41.296875 -0.5 
L 54 1.796875 
z
" id="STIXTwoText-117"/>
     <path d="M 26 2.90625 
C 18.796875 2.90625 18.296875 4.296875 18.296875 10.09375 
L 18.296875 70.59375 
L 15.796875 70.59375 
L 2.59375 67.09375 
L 2.59375 64.40625 
C 2.59375 64.40625 4.09375 64.59375 5.796875 64.59375 
C 8.296875 64.59375 10 64.40625 10 60.296875 
L 10 10.09375 
C 10 4.5 9.59375 2.90625 3 2.90625 
L 3 0 
L 26 0 
z
" id="STIXTwoText-108"/>
     <path d="M 13.296875 13.09375 
C 13.296875 4.5 12.40625 3 3.40625 3 
L 3.40625 0 
L 32.203125 0 
L 32.203125 3 
C 23.296875 3 22.40625 4.5 22.40625 13.09375 
L 22.40625 52.5 
C 22.40625 60.296875 22.703125 62.703125 32.203125 62.703125 
L 32.203125 65.703125 
L 3.40625 65.703125 
L 3.40625 62.703125 
C 12.90625 62.703125 13.296875 60.296875 13.296875 52.5 
z
" id="STIXTwoText-73"/>
     <path d="M 4.796875 65.703125 
L 4.796875 62.703125 
C 11.203125 62.703125 13.296875 61.59375 13.296875 55.703125 
L 13.296875 12.703125 
C 13.296875 4.296875 12.203125 3 4.40625 3 
L 4.40625 0 
L 32.59375 0 
L 32.59375 3 
C 24.5 3 22.5 4.09375 22.5 12.296875 
L 22.5 29.40625 
C 23.59375 28.90625 26.203125 28.59375 28.203125 28.59375 
C 41.296875 28.59375 54.40625 33.5 54.40625 49.09375 
C 54.40625 62.40625 42.5 65.703125 29.703125 65.703125 
z
M 22.5 61.40625 
C 24.59375 61.59375 26.5 61.796875 28.5 61.796875 
C 39.296875 61.796875 44.5 56.703125 44.5 47.703125 
C 44.5 36.09375 38.703125 32.703125 27.90625 32.703125 
C 25.90625 32.703125 23.59375 32.90625 22.5 33.09375 
z
" id="STIXTwoText-80"/>
    </defs>
    <g transform="translate(123.84 398.97)scale(0.12 -0.12)">
     <use xlink:href="#STIXTwoText-32"/>
     <use x="23.499985" xlink:href="#STIXTwoText-32"/>
     <use x="46.999969" xlink:href="#STIXTwoText-116"/>
     <use x="78.499954" xlink:href="#STIXTwoText-121"/>
     <use x="126.799942" xlink:href="#STIXTwoText-112"/>
     <use x="180.499939" xlink:href="#STIXTwoText-101"/>
     <use x="226.899933" xlink:href="#STIXTwoText-32"/>
     <use x="250.399918" xlink:href="#STIXTwoText-49"/>
     <use x="299.899902" xlink:href="#STIXTwoText-53"/>
     <use x="349.399887" xlink:href="#STIXTwoText-58"/>
     <use x="375.499878" xlink:href="#STIXTwoText-32"/>
     <use x="398.999863" xlink:href="#STIXTwoText-98"/>
     <use x="451.19986" xlink:href="#STIXTwoText-114"/>
     <use x="489.199844" xlink:href="#STIXTwoText-105"/>
     <use x="517.699829" xlink:href="#STIXTwoText-103"/>
     <use x="566.099823" xlink:href="#STIXTwoText-104"/>
     <use x="623.79982" xlink:href="#STIXTwoText-116"/>
     <use x="655.299805" xlink:href="#STIXTwoText-32"/>
     <use x="678.799789" xlink:href="#STIXTwoText-112"/>
     <use x="732.499786" xlink:href="#STIXTwoText-117"/>
     <use x="789.499771" xlink:href="#STIXTwoText-114"/>
     <use x="827.499756" xlink:href="#STIXTwoText-112"/>
     <use x="881.199753" xlink:href="#STIXTwoText-108"/>
     <use x="909.499741" xlink:href="#STIXTwoText-101"/>
     <use x="955.899734" xlink:href="#STIXTwoText-32"/>
     <use x="979.399719" xlink:href="#STIXTwoText-40"/>
     <use x="1013.699707" xlink:href="#STIXTwoText-83"/>
     <use x="1064.099701" xlink:href="#STIXTwoText-105"/>
     <use x="1092.599686" xlink:href="#STIXTwoText-84"/>
     <use x="1152.899673" xlink:href="#STIXTwoText-45"/>
     <use x="1184.399658" xlink:href="#STIXTwoText-73"/>
     <use x="1220.099655" xlink:href="#STIXTwoText-83"/>
     <use x="1270.499649" xlink:href="#STIXTwoText-84"/>
     <use x="1330.799637" xlink:href="#STIXTwoText-80"/>
     <use x="1387.699631" xlink:href="#STIXTwoText-41"/>
    </g>
   </g>
   <g id="text_3">
    <!--   type 14: bright blue (FiN-INFJ) -->
    <defs>
     <path d="M 48.09375 15.796875 
L 48.09375 22.703125 
L 37.90625 22.703125 
L 37.90625 64.5 
L 31.796875 64.5 
L 1.296875 22.09375 
L 1.296875 15.796875 
L 29 15.796875 
L 29 0 
L 37.90625 0 
L 37.90625 15.796875 
z
M 29 22.703125 
L 6.796875 22.703125 
L 6.796875 23.09375 
L 28.59375 53.59375 
L 29 53.59375 
z
" id="STIXTwoText-52"/>
     <path d="M 57.40625 49.296875 
L 56.796875 65.703125 
L 3.59375 65.703125 
L 3.59375 62.703125 
C 10.796875 62.703125 13.296875 61.296875 13.296875 54.40625 
L 13.296875 11.59375 
C 13.296875 4.203125 11.703125 3 3.59375 3 
L 3.59375 0 
L 32.90625 0 
L 32.90625 3 
C 25.09375 3 22.5 4.203125 22.5 11 
L 22.5 32 
L 34.296875 32 
C 42.90625 32 44.90625 30.703125 44.90625 22.59375 
L 48.296875 22.59375 
L 48.296875 45.796875 
L 44.90625 45.796875 
C 44.90625 37.703125 42.90625 35.90625 34.296875 35.90625 
L 22.5 35.90625 
L 22.5 61.203125 
L 38.40625 61.203125 
C 51.5 61.203125 52.40625 58.796875 54.203125 49.296875 
z
" id="STIXTwoText-70"/>
     <path d="M 71.5 65.703125 
L 47.90625 65.703125 
L 47.90625 62.703125 
C 52.09375 62.703125 53.90625 62.09375 55.5 60.203125 
C 57 58.5 57.40625 55.796875 57.40625 49.796875 
L 57.40625 17.40625 
L 56.90625 17.40625 
L 19.90625 65.703125 
L 2.90625 65.703125 
L 2.90625 62.703125 
C 7.40625 62.703125 9.09375 61.703125 12.296875 57.59375 
L 12.296875 14.90625 
C 12.296875 4.796875 10.796875 3 2.90625 3 
L 2.90625 0 
L 26.296875 0 
L 26.296875 3 
C 18.796875 3 17.203125 4.90625 17.203125 14.90625 
L 17.203125 52.703125 
L 17.703125 52.703125 
L 59.09375 -0.796875 
L 62.40625 -0.796875 
L 62.40625 49.296875 
C 62.40625 56.5 63.40625 59.296875 65 60.703125 
C 66.5 62.09375 67.90625 62.703125 71.5 62.703125 
z
" id="STIXTwoText-78"/>
    </defs>
    <g transform="translate(123.84 374.97)scale(0.12 -0.12)">
     <use xlink:href="#STIXTwoText-32"/>
     <use x="23.499985" xlink:href="#STIXTwoText-32"/>
     <use x="46.999969" xlink:href="#STIXTwoText-116"/>
     <use x="78.499954" xlink:href="#STIXTwoText-121"/>
     <use x="126.799942" xlink:href="#STIXTwoText-112"/>
     <use x="180.499939" xlink:href="#STIXTwoText-101"/>
     <use x="226.899933" xlink:href="#STIXTwoText-32"/>
     <use x="250.399918" xlink:href="#STIXTwoText-49"/>
     <use x="299.899902" xlink:href="#STIXTwoText-52"/>
     <use x="349.399887" xlink:href="#STIXTwoText-58"/>
     <use x="375.499878" xlink:href="#STIXTwoText-32"/>
     <use x="398.999863" xlink:href="#STIXTwoText-98"/>
     <use x="451.19986" xlink:href="#STIXTwoText-114"/>
     <use x="489.199844" xlink:href="#STIXTwoText-105"/>
     <use x="517.699829" xlink:href="#STIXTwoText-103"/>
     <use x="566.099823" xlink:href="#STIXTwoText-104"/>
     <use x="623.79982" xlink:href="#STIXTwoText-116"/>
     <use x="655.299805" xlink:href="#STIXTwoText-32"/>
     <use x="678.799789" xlink:href="#STIXTwoText-98"/>
     <use x="730.999786" xlink:href="#STIXTwoText-108"/>
     <use x="759.299774" xlink:href="#STIXTwoText-117"/>
     <use x="816.299759" xlink:href="#STIXTwoText-101"/>
     <use x="862.699753" xlink:href="#STIXTwoText-32"/>
     <use x="886.199738" xlink:href="#STIXTwoText-40"/>
     <use x="920.499725" xlink:href="#STIXTwoText-70"/>
     <use x="979.299713" xlink:href="#STIXTwoText-105"/>
     <use x="1007.799698" xlink:href="#STIXTwoText-78"/>
     <use x="1081.99968" xlink:href="#STIXTwoText-45"/>
     <use x="1113.499664" xlink:href="#STIXTwoText-73"/>
     <use x="1149.199661" xlink:href="#STIXTwoText-78"/>
     <use x="1223.399643" xlink:href="#STIXTwoText-70"/>
     <use x="1282.199631" xlink:href="#STIXTwoText-74"/>
     <use x="1321.799622" xlink:href="#STIXTwoText-41"/>
    </g>
   </g>
   <g id="text_4">
    <!--   type 13: bright aqua (NeF-ENFP) -->
    <defs>
     <path d="M 8.59375 49.796875 
C 12 55.09375 15.703125 57.90625 21.703125 57.90625 
C 27.90625 57.90625 31.90625 54.5 31.90625 48.59375 
C 31.90625 40.5 24.796875 35 18 35 
L 16.09375 35 
L 16.09375 31.203125 
L 18.09375 31.203125 
C 27.703125 31.203125 36.203125 25.296875 36.203125 16.40625 
C 36.203125 6.59375 30.09375 3.703125 23.796875 3.703125 
C 21.40625 3.703125 20 4.09375 15.703125 6.296875 
C 12.203125 8.09375 11.40625 8.59375 9.796875 8.59375 
C 7.203125 8.59375 5.90625 6.296875 5.90625 4.203125 
C 5.90625 1.59375 8.09375 -1.296875 17.09375 -1.296875 
C 31.703125 -1.296875 44.40625 5.703125 44.40625 19.40625 
C 44.40625 28.296875 37.703125 33.59375 29.703125 36.09375 
L 29.703125 36.40625 
C 36 40.40625 40.5 44.09375 40.5 51 
C 40.5 58.59375 34.59375 64.40625 24.40625 64.40625 
C 16.203125 64.40625 10 59.796875 6.296875 51.09375 
z
" id="STIXTwoText-51"/>
     <path d="M 50.703125 -22 
L 50.703125 -19.203125 
C 45.09375 -19.203125 44.09375 -17.5 44.09375 -12.40625 
L 44.09375 48.09375 
L 40.40625 48.09375 
L 37.703125 44.796875 
C 33.5 47.59375 30.09375 48.5 25.90625 48.5 
C 13.203125 48.5 3.296875 38 3.296875 22 
C 3.296875 8.09375 9.90625 -0.796875 20.296875 -0.796875 
C 26.796875 -0.796875 31.09375 2.40625 35.5 6.296875 
L 35.796875 6.296875 
L 35.796875 -11.296875 
C 35.796875 -17.5 34.59375 -19.203125 26.5 -19.203125 
L 26.5 -22 
z
M 35.796875 10.296875 
C 33 8 30 6.5 25.09375 6.5 
C 15.09375 6.5 11.90625 14.90625 11.90625 25.796875 
C 11.90625 38.296875 17.40625 44.5 25.796875 44.5 
C 31.09375 44.5 34.5 41.59375 35.796875 36.59375 
z
" id="STIXTwoText-113"/>
    </defs>
    <g transform="translate(123.84 350.97)scale(0.12 -0.12)">
     <use xlink:href="#STIXTwoText-32"/>
     <use x="23.499985" xlink:href="#STIXTwoText-32"/>
     <use x="46.999969" xlink:href="#STIXTwoText-116"/>
     <use x="78.499954" xlink:href="#STIXTwoText-121"/>
     <use x="126.799942" xlink:href="#STIXTwoText-112"/>
     <use x="180.499939" xlink:href="#STIXTwoText-101"/>
     <use x="226.899933" xlink:href="#STIXTwoText-32"/>
     <use x="250.399918" xlink:href="#STIXTwoText-49"/>
     <use x="299.899902" xlink:href="#STIXTwoText-51"/>
     <use x="349.399887" xlink:href="#STIXTwoText-58"/>
     <use x="375.499878" xlink:href="#STIXTwoText-32"/>
     <use x="398.999863" xlink:href="#STIXTwoText-98"/>
     <use x="451.19986" xlink:href="#STIXTwoText-114"/>
     <use x="489.199844" xlink:href="#STIXTwoText-105"/>
     <use x="517.699829" xlink:href="#STIXTwoText-103"/>
     <use x="566.099823" xlink:href="#STIXTwoText-104"/>
     <use x="623.79982" xlink:href="#STIXTwoText-116"/>
     <use x="655.299805" xlink:href="#STIXTwoText-32"/>
     <use x="678.799789" xlink:href="#STIXTwoText-97"/>
     <use x="726.799774" xlink:href="#STIXTwoText-113"/>
     <use x="778.899765" xlink:href="#STIXTwoText-117"/>
     <use x="835.89975" xlink:href="#STIXTwoText-97"/>
     <use x="883.899734" xlink:href="#STIXTwoText-32"/>
     <use x="907.399719" xlink:href="#STIXTwoText-40"/>
     <use x="941.699707" xlink:href="#STIXTwoText-78"/>
     <use x="1015.899689" xlink:href="#STIXTwoText-101"/>
     <use x="1062.299683" xlink:href="#STIXTwoText-70"/>
     <use x="1121.09967" xlink:href="#STIXTwoText-45"/>
     <use x="1152.599655" xlink:href="#STIXTwoText-69"/>
     <use x="1215.199646" xlink:href="#STIXTwoText-78"/>
     <use x="1289.399628" xlink:href="#STIXTwoText-70"/>
     <use x="1348.199615" xlink:href="#STIXTwoText-80"/>
     <use x="1405.099609" xlink:href="#STIXTwoText-41"/>
    </g>
   </g>
   <g id="text_5">
    <!--   type 12: dark red (TeN-ENTJ) -->
    <defs>
     <path d="M 46.40625 16 
L 43.5 16 
C 41.203125 10 39.90625 7.90625 34.59375 7.90625 
L 20.703125 7.90625 
L 13.703125 7.59375 
L 13.703125 8.09375 
L 26.90625 20.59375 
C 37.5 31.296875 43.203125 38.203125 43.203125 47.09375 
C 43.203125 57.59375 35.296875 64.40625 24 64.40625 
C 14.296875 64.40625 7.5 58.796875 4.40625 49.09375 
L 6.796875 48.09375 
C 10.5 55.59375 14.90625 57.90625 21.40625 57.90625 
C 29.09375 57.90625 33.90625 53.09375 33.90625 45.59375 
C 33.90625 35.09375 28.90625 28.796875 19 18.59375 
L 3.796875 3.40625 
L 3.796875 0 
L 43.203125 0 
z
" id="STIXTwoText-50"/>
     <path d="M 51.40625 1.796875 
L 51.40625 4.5 
L 49.296875 4.5 
C 45.59375 4.5 44.296875 5.5 44.296875 10.703125 
L 44.296875 70.59375 
L 41.59375 70.59375 
L 29 67.09375 
L 29 64.296875 
C 29 64.296875 30.703125 64.5 31.59375 64.5 
C 35.5 64.5 36 63.59375 36 59.203125 
L 36 46.09375 
C 32.90625 47.796875 29.59375 48.5 26.296875 48.5 
C 13.703125 48.5 3.296875 38.40625 3.296875 21.90625 
C 3.296875 9.09375 9.09375 -0.796875 20.40625 -0.796875 
C 27 -0.796875 32.09375 3 35.90625 6.40625 
L 36.296875 6.40625 
L 36.296875 -0.5 
L 38.59375 -0.5 
z
M 36 10.09375 
C 32.5 7.703125 29.796875 6.40625 25.09375 6.40625 
C 16.59375 6.40625 12 12 12 25.796875 
C 12 38.40625 17.703125 44.5 26.09375 44.5 
C 32.296875 44.5 35.203125 40.59375 36 36.5 
z
" id="STIXTwoText-100"/>
     <path d="M 53.90625 0 
L 53.90625 2.90625 
C 49.703125 2.90625 48.09375 3.203125 43.296875 8.703125 
L 25.703125 28.5 
L 30.703125 32.59375 
C 42 42.5 43.796875 44.296875 50.296875 44.296875 
L 50.296875 47.296875 
L 28.703125 47.296875 
L 28.703125 44.296875 
C 32.5 44.296875 33.59375 43.796875 33.59375 42.5 
C 33.59375 40.90625 32.203125 39.703125 31.796875 39.296875 
L 18.90625 26.5 
L 18.296875 26.5 
L 18.296875 70.59375 
L 15.59375 70.59375 
L 2.59375 67.09375 
L 2.59375 64.40625 
C 2.59375 64.40625 4.59375 64.59375 6 64.59375 
C 9.296875 64.59375 10 63.703125 10 59.5 
L 10 9.5 
C 10 4 9 2.90625 3 2.90625 
L 3 0 
L 25.703125 0 
L 25.703125 2.90625 
C 19.40625 2.90625 18.296875 4 18.296875 9.09375 
L 18.296875 24.296875 
L 18.90625 24.296875 
L 34.59375 6.5 
C 35.09375 6 35.703125 5 35.703125 4.09375 
C 35.703125 3.203125 34.703125 2.90625 31.796875 2.90625 
L 31.796875 0 
z
" id="STIXTwoText-107"/>
    </defs>
    <g transform="translate(123.84 327.054375)scale(0.12 -0.12)">
     <use xlink:href="#STIXTwoText-32"/>
     <use x="23.499985" xlink:href="#STIXTwoText-32"/>
     <use x="46.999969" xlink:href="#STIXTwoText-116"/>
     <use x="78.499954" xlink:href="#STIXTwoText-121"/>
     <use x="126.799942" xlink:href="#STIXTwoText-112"/>
     <use x="180.499939" xlink:href="#STIXTwoText-101"/>
     <use x="226.899933" xlink:href="#STIXTwoText-32"/>
     <use x="250.399918" xlink:href="#STIXTwoText-49"/>
     <use x="299.899902" xlink:href="#STIXTwoText-50"/>
     <use x="349.399887" xlink:href="#STIXTwoText-58"/>
     <use x="375.499878" xlink:href="#STIXTwoText-32"/>
     <use x="398.999863" xlink:href="#STIXTwoText-100"/>
     <use x="452.899857" xlink:href="#STIXTwoText-97"/>
     <use x="500.899841" xlink:href="#STIXTwoText-114"/>
     <use x="538.899826" xlink:href="#STIXTwoText-107"/>
     <use x="593.099823" xlink:href="#STIXTwoText-32"/>
     <use x="616.599808" xlink:href="#STIXTwoText-114"/>
     <use x="654.599792" xlink:href="#STIXTwoText-101"/>
     <use x="700.999786" xlink:href="#STIXTwoText-100"/>
     <use x="754.89978" xlink:href="#STIXTwoText-32"/>
     <use x="778.399765" xlink:href="#STIXTwoText-40"/>
     <use x="812.699753" xlink:href="#STIXTwoText-84"/>
     <use x="872.999741" xlink:href="#STIXTwoText-101"/>
     <use x="919.399734" xlink:href="#STIXTwoText-78"/>
     <use x="993.599716" xlink:href="#STIXTwoText-45"/>
     <use x="1025.099701" xlink:href="#STIXTwoText-69"/>
     <use x="1087.699692" xlink:href="#STIXTwoText-78"/>
     <use x="1161.899673" xlink:href="#STIXTwoText-84"/>
     <use x="1222.199661" xlink:href="#STIXTwoText-74"/>
     <use x="1261.799652" xlink:href="#STIXTwoText-41"/>
    </g>
   </g>
   <g id="text_6">
    <!--   type 11: dark orange (NiT-INTP) -->
    <defs>
     <path d="M 25.796875 48.5 
C 12.296875 48.5 3.40625 38.703125 3.40625 24.203125 
C 3.40625 8 11.796875 -1 25.796875 -1 
C 38.796875 -1 48 7.796875 48 24.59375 
C 48 39.40625 39.5 48.5 25.796875 48.5 
z
M 25.40625 44.703125 
C 34.296875 44.703125 38.796875 36.40625 38.796875 24.09375 
C 38.796875 7.796875 34.40625 3 26.203125 3 
C 17.59375 2.90625 12.703125 9.59375 12.703125 25.5 
C 12.703125 38.296875 17.796875 44.703125 25.40625 44.703125 
z
" id="STIXTwoText-111"/>
    </defs>
    <g transform="translate(123.84 302.97)scale(0.12 -0.12)">
     <use xlink:href="#STIXTwoText-32"/>
     <use x="23.499985" xlink:href="#STIXTwoText-32"/>
     <use x="46.999969" xlink:href="#STIXTwoText-116"/>
     <use x="78.499954" xlink:href="#STIXTwoText-121"/>
     <use x="126.799942" xlink:href="#STIXTwoText-112"/>
     <use x="180.499939" xlink:href="#STIXTwoText-101"/>
     <use x="226.899933" xlink:href="#STIXTwoText-32"/>
     <use x="250.399918" xlink:href="#STIXTwoText-49"/>
     <use x="299.899902" xlink:href="#STIXTwoText-49"/>
     <use x="349.399887" xlink:href="#STIXTwoText-58"/>
     <use x="375.499878" xlink:href="#STIXTwoText-32"/>
     <use x="398.999863" xlink:href="#STIXTwoText-100"/>
     <use x="452.899857" xlink:href="#STIXTwoText-97"/>
     <use x="500.899841" xlink:href="#STIXTwoText-114"/>
     <use x="538.899826" xlink:href="#STIXTwoText-107"/>
     <use x="593.099823" xlink:href="#STIXTwoText-32"/>
     <use x="616.599808" xlink:href="#STIXTwoText-111"/>
     <use x="667.999802" xlink:href="#STIXTwoText-114"/>
     <use x="705.999786" xlink:href="#STIXTwoText-97"/>
     <use x="753.999771" xlink:href="#STIXTwoText-110"/>
     <use x="811.599762" xlink:href="#STIXTwoText-103"/>
     <use x="859.999756" xlink:href="#STIXTwoText-101"/>
     <use x="906.39975" xlink:href="#STIXTwoText-32"/>
     <use x="929.899734" xlink:href="#STIXTwoText-40"/>
     <use x="964.199722" xlink:href="#STIXTwoText-78"/>
     <use x="1038.399704" xlink:href="#STIXTwoText-105"/>
     <use x="1066.899689" xlink:href="#STIXTwoText-84"/>
     <use x="1127.199677" xlink:href="#STIXTwoText-45"/>
     <use x="1158.699661" xlink:href="#STIXTwoText-73"/>
     <use x="1194.399658" xlink:href="#STIXTwoText-78"/>
     <use x="1268.59964" xlink:href="#STIXTwoText-84"/>
     <use x="1328.899628" xlink:href="#STIXTwoText-80"/>
     <use x="1385.799622" xlink:href="#STIXTwoText-41"/>
    </g>
   </g>
   <g id="text_7">
    <!--   type 10: dark yellow (FiS-ISFJ) -->
    <defs>
     <path d="M 46.796875 31.703125 
C 46.796875 52.296875 37.796875 64.203125 24.90625 64.203125 
C 10.40625 64.203125 2.703125 51 2.703125 32 
C 2.703125 14.296875 8.59375 -1.09375 24.703125 -1.09375 
C 40.40625 -1.09375 46.796875 14.59375 46.796875 31.703125 
z
M 37.09375 31.09375 
C 37.09375 11.90625 32.59375 2.5 24.703125 2.5 
C 16.703125 2.5 12.296875 12.09375 12.296875 31.5 
C 12.296875 51.296875 16.703125 60.796875 24.59375 60.796875 
C 32.796875 60.796875 37.09375 51.40625 37.09375 31.09375 
z
" id="STIXTwoText-48"/>
     <path d="M 76.203125 47.296875 
L 58.90625 47.296875 
L 58.90625 44.40625 
C 62.59375 44.40625 64.5 43.796875 64.5 41.90625 
C 64.5 40.203125 64 38.796875 63.90625 38.296875 
L 56 15.90625 
L 54 10.09375 
L 53.40625 10.09375 
L 51.59375 15.90625 
L 43.5 37.796875 
C 43 39.296875 42.59375 40.703125 42.59375 41.90625 
C 42.59375 43.5 43.796875 44.40625 47.59375 44.40625 
L 47.59375 47.296875 
L 26.703125 47.296875 
L 26.703125 44.40625 
C 31.09375 44.40625 32.59375 43.59375 35 37.09375 
L 36.09375 34.09375 
L 28.90625 15.90625 
L 26.796875 10.09375 
L 26.09375 10.09375 
L 24.296875 15.90625 
L 15.59375 38 
C 15 39.5 14.5 40.59375 14.5 41.90625 
C 14.5 43.5 15.796875 44.40625 19.796875 44.40625 
L 19.796875 47.296875 
L -1.703125 47.296875 
L -1.703125 44.40625 
C 2.703125 44.40625 4.203125 43.296875 6.796875 37.09375 
L 21.796875 -0.59375 
L 26.40625 -0.59375 
L 38.09375 28.5 
L 38.5 28.5 
L 49.09375 -0.59375 
L 53.90625 -0.59375 
L 68.796875 37.796875 
C 70.796875 43 72.296875 44.40625 76.203125 44.40625 
z
" id="STIXTwoText-119"/>
    </defs>
    <g transform="translate(123.84 279.054375)scale(0.12 -0.12)">
     <use xlink:href="#STIXTwoText-32"/>
     <use x="23.499985" xlink:href="#STIXTwoText-32"/>
     <use x="46.999969" xlink:href="#STIXTwoText-116"/>
     <use x="78.499954" xlink:href="#STIXTwoText-121"/>
     <use x="126.799942" xlink:href="#STIXTwoText-112"/>
     <use x="180.499939" xlink:href="#STIXTwoText-101"/>
     <use x="226.899933" xlink:href="#STIXTwoText-32"/>
     <use x="250.399918" xlink:href="#STIXTwoText-49"/>
     <use x="299.899902" xlink:href="#STIXTwoText-48"/>
     <use x="349.399887" xlink:href="#STIXTwoText-58"/>
     <use x="375.499878" xlink:href="#STIXTwoText-32"/>
     <use x="398.999863" xlink:href="#STIXTwoText-100"/>
     <use x="452.899857" xlink:href="#STIXTwoText-97"/>
     <use x="500.899841" xlink:href="#STIXTwoText-114"/>
     <use x="538.899826" xlink:href="#STIXTwoText-107"/>
     <use x="593.099823" xlink:href="#STIXTwoText-32"/>
     <use x="616.599808" xlink:href="#STIXTwoText-121"/>
     <use x="664.899796" xlink:href="#STIXTwoText-101"/>
     <use x="711.299789" xlink:href="#STIXTwoText-108"/>
     <use x="739.599777" xlink:href="#STIXTwoText-108"/>
     <use x="767.899765" xlink:href="#STIXTwoText-111"/>
     <use x="819.299759" xlink:href="#STIXTwoText-119"/>
     <use x="894.199753" xlink:href="#STIXTwoText-32"/>
     <use x="917.699738" xlink:href="#STIXTwoText-40"/>
     <use x="951.999725" xlink:href="#STIXTwoText-70"/>
     <use x="1010.799713" xlink:href="#STIXTwoText-105"/>
     <use x="1039.299698" xlink:href="#STIXTwoText-83"/>
     <use x="1089.699692" xlink:href="#STIXTwoText-45"/>
     <use x="1121.199677" xlink:href="#STIXTwoText-73"/>
     <use x="1156.899673" xlink:href="#STIXTwoText-83"/>
     <use x="1207.299667" xlink:href="#STIXTwoText-70"/>
     <use x="1266.099655" xlink:href="#STIXTwoText-74"/>
     <use x="1305.699646" xlink:href="#STIXTwoText-41"/>
    </g>
   </g>
   <g id="text_8">
    <!--   type 9: dark green (SeF-ESFP) -->
    <defs>
     <path d="M 8.5 -1.296875 
C 30.59375 -1.09375 45 11.59375 45 37.40625 
C 45 52.203125 38.90625 64.59375 24 64.59375 
C 11.40625 64.59375 3.90625 56.703125 3.90625 43.203125 
C 3.90625 30 11 22.203125 21.90625 22.203125 
C 26.90625 22.203125 30.5 24.296875 35 28.40625 
L 35.59375 28.296875 
C 33.40625 12.09375 22.09375 3.203125 8.296875 1.59375 
z
M 12.59375 43.796875 
C 12.59375 56.59375 17.09375 61.203125 23.59375 61.203125 
C 32.40625 61.203125 36 52.296875 36 39.796875 
C 36 31.203125 30.703125 28.09375 24.90625 28.09375 
C 16.59375 28.09375 12.59375 34.5 12.59375 43.796875 
z
" id="STIXTwoText-57"/>
    </defs>
    <g transform="translate(123.84 254.97)scale(0.12 -0.12)">
     <use xlink:href="#STIXTwoText-32"/>
     <use x="23.499985" xlink:href="#STIXTwoText-32"/>
     <use x="46.999969" xlink:href="#STIXTwoText-116"/>
     <use x="78.499954" xlink:href="#STIXTwoText-121"/>
     <use x="126.799942" xlink:href="#STIXTwoText-112"/>
     <use x="180.499939" xlink:href="#STIXTwoText-101"/>
     <use x="226.899933" xlink:href="#STIXTwoText-32"/>
     <use x="250.399918" xlink:href="#STIXTwoText-57"/>
     <use x="299.899902" xlink:href="#STIXTwoText-58"/>
     <use x="325.999893" xlink:href="#STIXTwoText-32"/>
     <use x="349.499878" xlink:href="#STIXTwoText-100"/>
     <use x="403.399872" xlink:href="#STIXTwoText-97"/>
     <use x="451.399857" xlink:href="#STIXTwoText-114"/>
     <use x="489.399841" xlink:href="#STIXTwoText-107"/>
     <use x="543.599838" xlink:href="#STIXTwoText-32"/>
     <use x="567.099823" xlink:href="#STIXTwoText-103"/>
     <use x="615.499817" xlink:href="#STIXTwoText-114"/>
     <use x="653.499802" xlink:href="#STIXTwoText-101"/>
     <use x="699.899796" xlink:href="#STIXTwoText-101"/>
     <use x="746.299789" xlink:href="#STIXTwoText-110"/>
     <use x="803.89978" xlink:href="#STIXTwoText-32"/>
     <use x="827.399765" xlink:href="#STIXTwoText-40"/>
     <use x="861.699753" xlink:href="#STIXTwoText-83"/>
     <use x="912.099747" xlink:href="#STIXTwoText-101"/>
     <use x="958.499741" xlink:href="#STIXTwoText-70"/>
     <use x="1017.299728" xlink:href="#STIXTwoText-45"/>
     <use x="1048.799713" xlink:href="#STIXTwoText-69"/>
     <use x="1111.399704" xlink:href="#STIXTwoText-83"/>
     <use x="1161.799698" xlink:href="#STIXTwoText-70"/>
     <use x="1220.599686" xlink:href="#STIXTwoText-80"/>
     <use x="1277.49968" xlink:href="#STIXTwoText-41"/>
    </g>
   </g>
   <g id="text_9">
    <!--   type 8: dark aqua (FeN-ENFJ) -->
    <defs>
     <path d="M 44.796875 15 
C 44.796875 23 41.203125 27.796875 29.5 34.90625 
L 29.5 35.203125 
C 38.796875 40.296875 42.40625 43.59375 42.40625 50.90625 
C 42.40625 58.796875 34.796875 64.703125 24.90625 64.703125 
C 13.90625 64.703125 5.90625 59 5.90625 49.90625 
C 5.90625 43.09375 8.09375 39 18.296875 31.90625 
L 18.296875 31.59375 
C 9 25.40625 4.59375 22.203125 4.59375 14.203125 
C 4.59375 4 13 -1.203125 24.59375 -1.203125 
C 36.5 -1.203125 44.796875 4.5 44.796875 15 
z
M 35 51.09375 
C 35 44.703125 33 40.796875 26.40625 36.796875 
C 17.5 42.203125 13.703125 45.796875 13.703125 51.703125 
C 13.703125 57.796875 17.90625 61.40625 24.703125 61.40625 
C 31.09375 61.40625 35 57.703125 35 51.09375 
z
M 21.296875 30 
C 33.40625 22.203125 36.40625 18.5 36.40625 12.09375 
C 36.40625 5.296875 31.203125 1.90625 25 1.90625 
C 17.40625 1.90625 12.40625 6 12.40625 15 
C 12.40625 21.90625 15.59375 25.40625 21.296875 30 
z
" id="STIXTwoText-56"/>
    </defs>
    <g transform="translate(123.84 231.054375)scale(0.12 -0.12)">
     <use xlink:href="#STIXTwoText-32"/>
     <use x="23.499985" xlink:href="#STIXTwoText-32"/>
     <use x="46.999969" xlink:href="#STIXTwoText-116"/>
     <use x="78.499954" xlink:href="#STIXTwoText-121"/>
     <use x="126.799942" xlink:href="#STIXTwoText-112"/>
     <use x="180.499939" xlink:href="#STIXTwoText-101"/>
     <use x="226.899933" xlink:href="#STIXTwoText-32"/>
     <use x="250.399918" xlink:href="#STIXTwoText-56"/>
     <use x="299.899902" xlink:href="#STIXTwoText-58"/>
     <use x="325.999893" xlink:href="#STIXTwoText-32"/>
     <use x="349.499878" xlink:href="#STIXTwoText-100"/>
     <use x="403.399872" xlink:href="#STIXTwoText-97"/>
     <use x="451.399857" xlink:href="#STIXTwoText-114"/>
     <use x="489.399841" xlink:href="#STIXTwoText-107"/>
     <use x="543.599838" xlink:href="#STIXTwoText-32"/>
     <use x="567.099823" xlink:href="#STIXTwoText-97"/>
     <use x="615.099808" xlink:href="#STIXTwoText-113"/>
     <use x="667.199799" xlink:href="#STIXTwoText-117"/>
     <use x="724.199783" xlink:href="#STIXTwoText-97"/>
     <use x="772.199768" xlink:href="#STIXTwoText-32"/>
     <use x="795.699753" xlink:href="#STIXTwoText-40"/>
     <use x="829.999741" xlink:href="#STIXTwoText-70"/>
     <use x="888.799728" xlink:href="#STIXTwoText-101"/>
     <use x="935.199722" xlink:href="#STIXTwoText-78"/>
     <use x="1009.399704" xlink:href="#STIXTwoText-45"/>
     <use x="1040.899689" xlink:href="#STIXTwoText-69"/>
     <use x="1103.49968" xlink:href="#STIXTwoText-78"/>
     <use x="1177.699661" xlink:href="#STIXTwoText-70"/>
     <use x="1236.499649" xlink:href="#STIXTwoText-74"/>
     <use x="1276.09964" xlink:href="#STIXTwoText-41"/>
    </g>
   </g>
   <g id="text_10">
    <!--   type 7: dark blue (NiF-INFP) -->
    <defs>
     <path d="M 46.40625 59.90625 
L 46.40625 63 
L 8.203125 63 
L 4.203125 47.703125 
L 7.296875 47.40625 
C 10 53.90625 10.796875 54.90625 16.40625 54.90625 
L 38.703125 54.90625 
L 15.09375 -0.796875 
L 23 -0.796875 
z
" id="STIXTwoText-55"/>
    </defs>
    <g transform="translate(123.84 207.054375)scale(0.12 -0.12)">
     <use xlink:href="#STIXTwoText-32"/>
     <use x="23.499985" xlink:href="#STIXTwoText-32"/>
     <use x="46.999969" xlink:href="#STIXTwoText-116"/>
     <use x="78.499954" xlink:href="#STIXTwoText-121"/>
     <use x="126.799942" xlink:href="#STIXTwoText-112"/>
     <use x="180.499939" xlink:href="#STIXTwoText-101"/>
     <use x="226.899933" xlink:href="#STIXTwoText-32"/>
     <use x="250.399918" xlink:href="#STIXTwoText-55"/>
     <use x="299.899902" xlink:href="#STIXTwoText-58"/>
     <use x="325.999893" xlink:href="#STIXTwoText-32"/>
     <use x="349.499878" xlink:href="#STIXTwoText-100"/>
     <use x="403.399872" xlink:href="#STIXTwoText-97"/>
     <use x="451.399857" xlink:href="#STIXTwoText-114"/>
     <use x="489.399841" xlink:href="#STIXTwoText-107"/>
     <use x="543.599838" xlink:href="#STIXTwoText-32"/>
     <use x="567.099823" xlink:href="#STIXTwoText-98"/>
     <use x="619.29982" xlink:href="#STIXTwoText-108"/>
     <use x="647.599808" xlink:href="#STIXTwoText-117"/>
     <use x="704.599792" xlink:href="#STIXTwoText-101"/>
     <use x="750.999786" xlink:href="#STIXTwoText-32"/>
     <use x="774.499771" xlink:href="#STIXTwoText-40"/>
     <use x="808.799759" xlink:href="#STIXTwoText-78"/>
     <use x="882.999741" xlink:href="#STIXTwoText-105"/>
     <use x="911.499725" xlink:href="#STIXTwoText-70"/>
     <use x="970.299713" xlink:href="#STIXTwoText-45"/>
     <use x="1001.799698" xlink:href="#STIXTwoText-73"/>
     <use x="1037.499695" xlink:href="#STIXTwoText-78"/>
     <use x="1111.699677" xlink:href="#STIXTwoText-70"/>
     <use x="1170.499664" xlink:href="#STIXTwoText-80"/>
     <use x="1227.399658" xlink:href="#STIXTwoText-41"/>
    </g>
   </g>
   <g id="text_11">
    <!--   type 6: dark purple (TiS-ISTJ) -->
    <g transform="translate(123.84 183.054375)scale(0.12 -0.12)">
     <use xlink:href="#STIXTwoText-32"/>
     <use x="23.499985" xlink:href="#STIXTwoText-32"/>
     <use x="46.999969" xlink:href="#STIXTwoText-116"/>
     <use x="78.499954" xlink:href="#STIXTwoText-121"/>
     <use x="126.799942" xlink:href="#STIXTwoText-112"/>
     <use x="180.499939" xlink:href="#STIXTwoText-101"/>
     <use x="226.899933" xlink:href="#STIXTwoText-32"/>
     <use x="250.399918" xlink:href="#STIXTwoText-54"/>
     <use x="299.899902" xlink:href="#STIXTwoText-58"/>
     <use x="325.999893" xlink:href="#STIXTwoText-32"/>
     <use x="349.499878" xlink:href="#STIXTwoText-100"/>
     <use x="403.399872" xlink:href="#STIXTwoText-97"/>
     <use x="451.399857" xlink:href="#STIXTwoText-114"/>
     <use x="489.399841" xlink:href="#STIXTwoText-107"/>
     <use x="543.599838" xlink:href="#STIXTwoText-32"/>
     <use x="567.099823" xlink:href="#STIXTwoText-112"/>
     <use x="620.79982" xlink:href="#STIXTwoText-117"/>
     <use x="677.799805" xlink:href="#STIXTwoText-114"/>
     <use x="715.799789" xlink:href="#STIXTwoText-112"/>
     <use x="769.499786" xlink:href="#STIXTwoText-108"/>
     <use x="797.799774" xlink:href="#STIXTwoText-101"/>
     <use x="844.199768" xlink:href="#STIXTwoText-32"/>
     <use x="867.699753" xlink:href="#STIXTwoText-40"/>
     <use x="901.999741" xlink:href="#STIXTwoText-84"/>
     <use x="962.299728" xlink:href="#STIXTwoText-105"/>
     <use x="990.799713" xlink:href="#STIXTwoText-83"/>
     <use x="1041.199707" xlink:href="#STIXTwoText-45"/>
     <use x="1072.699692" xlink:href="#STIXTwoText-73"/>
     <use x="1108.399689" xlink:href="#STIXTwoText-83"/>
     <use x="1158.799683" xlink:href="#STIXTwoText-84"/>
     <use x="1219.09967" xlink:href="#STIXTwoText-74"/>
     <use x="1258.699661" xlink:href="#STIXTwoText-41"/>
    </g>
   </g>
   <g id="text_12">
    <!--   type 5: dark magenta (SeT-ESTP) -->
    <g transform="translate(123.84 158.97)scale(0.12 -0.12)">
     <use xlink:href="#STIXTwoText-32"/>
     <use x="23.499985" xlink:href="#STIXTwoText-32"/>
     <use x="46.999969" xlink:href="#STIXTwoText-116"/>
     <use x="78.499954" xlink:href="#STIXTwoText-121"/>
     <use x="126.799942" xlink:href="#STIXTwoText-112"/>
     <use x="180.499939" xlink:href="#STIXTwoText-101"/>
     <use x="226.899933" xlink:href="#STIXTwoText-32"/>
     <use x="250.399918" xlink:href="#STIXTwoText-53"/>
     <use x="299.899902" xlink:href="#STIXTwoText-58"/>
     <use x="325.999893" xlink:href="#STIXTwoText-32"/>
     <use x="349.499878" xlink:href="#STIXTwoText-100"/>
     <use x="403.399872" xlink:href="#STIXTwoText-97"/>
     <use x="451.399857" xlink:href="#STIXTwoText-114"/>
     <use x="489.399841" xlink:href="#STIXTwoText-107"/>
     <use x="543.599838" xlink:href="#STIXTwoText-32"/>
     <use x="567.099823" xlink:href="#STIXTwoText-109"/>
     <use x="652.299805" xlink:href="#STIXTwoText-97"/>
     <use x="700.299789" xlink:href="#STIXTwoText-103"/>
     <use x="748.699783" xlink:href="#STIXTwoText-101"/>
     <use x="795.099777" xlink:href="#STIXTwoText-110"/>
     <use x="852.699768" xlink:href="#STIXTwoText-116"/>
     <use x="884.199753" xlink:href="#STIXTwoText-97"/>
     <use x="932.199738" xlink:href="#STIXTwoText-32"/>
     <use x="955.699722" xlink:href="#STIXTwoText-40"/>
     <use x="989.99971" xlink:href="#STIXTwoText-83"/>
     <use x="1040.399704" xlink:href="#STIXTwoText-101"/>
     <use x="1086.799698" xlink:href="#STIXTwoText-84"/>
     <use x="1147.099686" xlink:href="#STIXTwoText-45"/>
     <use x="1178.59967" xlink:href="#STIXTwoText-69"/>
     <use x="1241.199661" xlink:href="#STIXTwoText-83"/>
     <use x="1291.599655" xlink:href="#STIXTwoText-84"/>
     <use x="1351.899643" xlink:href="#STIXTwoText-80"/>
     <use x="1408.799637" xlink:href="#STIXTwoText-41"/>
    </g>
   </g>
   <g id="text_13">
    <!--   type 4: bright green (FeS-ESFJ) -->
    <g transform="translate(123.84 134.97)scale(0.12 -0.12)">
     <use xlink:href="#STIXTwoText-32"/>
     <use x="23.499985" xlink:href="#STIXTwoText-32"/>
     <use x="46.999969" xlink:href="#STIXTwoText-116"/>
     <use x="78.499954" xlink:href="#STIXTwoText-121"/>
     <use x="126.799942" xlink:href="#STIXTwoText-112"/>
     <use x="180.499939" xlink:href="#STIXTwoText-101"/>
     <use x="226.899933" xlink:href="#STIXTwoText-32"/>
     <use x="250.399918" xlink:href="#STIXTwoText-52"/>
     <use x="299.899902" xlink:href="#STIXTwoText-58"/>
     <use x="325.999893" xlink:href="#STIXTwoText-32"/>
     <use x="349.499878" xlink:href="#STIXTwoText-98"/>
     <use x="401.699875" xlink:href="#STIXTwoText-114"/>
     <use x="439.69986" xlink:href="#STIXTwoText-105"/>
     <use x="468.199844" xlink:href="#STIXTwoText-103"/>
     <use x="516.599838" xlink:href="#STIXTwoText-104"/>
     <use x="574.299835" xlink:href="#STIXTwoText-116"/>
     <use x="605.79982" xlink:href="#STIXTwoText-32"/>
     <use x="629.299805" xlink:href="#STIXTwoText-103"/>
     <use x="677.699799" xlink:href="#STIXTwoText-114"/>
     <use x="715.699783" xlink:href="#STIXTwoText-101"/>
     <use x="762.099777" xlink:href="#STIXTwoText-101"/>
     <use x="808.499771" xlink:href="#STIXTwoText-110"/>
     <use x="866.099762" xlink:href="#STIXTwoText-32"/>
     <use x="889.599747" xlink:href="#STIXTwoText-40"/>
     <use x="923.899734" xlink:href="#STIXTwoText-70"/>
     <use x="982.699722" xlink:href="#STIXTwoText-101"/>
     <use x="1029.099716" xlink:href="#STIXTwoText-83"/>
     <use x="1079.49971" xlink:href="#STIXTwoText-45"/>
     <use x="1110.999695" xlink:href="#STIXTwoText-69"/>
     <use x="1173.599686" xlink:href="#STIXTwoText-83"/>
     <use x="1223.99968" xlink:href="#STIXTwoText-70"/>
     <use x="1282.799667" xlink:href="#STIXTwoText-74"/>
     <use x="1322.399658" xlink:href="#STIXTwoText-41"/>
    </g>
   </g>
   <g id="text_14">
    <!--   type 3: bright yellow (SiF-ISFP) -->
    <g transform="translate(123.84 110.97)scale(0.12 -0.12)">
     <use xlink:href="#STIXTwoText-32"/>
     <use x="23.499985" xlink:href="#STIXTwoText-32"/>
     <use x="46.999969" xlink:href="#STIXTwoText-116"/>
     <use x="78.499954" xlink:href="#STIXTwoText-121"/>
     <use x="126.799942" xlink:href="#STIXTwoText-112"/>
     <use x="180.499939" xlink:href="#STIXTwoText-101"/>
     <use x="226.899933" xlink:href="#STIXTwoText-32"/>
     <use x="250.399918" xlink:href="#STIXTwoText-51"/>
     <use x="299.899902" xlink:href="#STIXTwoText-58"/>
     <use x="325.999893" xlink:href="#STIXTwoText-32"/>
     <use x="349.499878" xlink:href="#STIXTwoText-98"/>
     <use x="401.699875" xlink:href="#STIXTwoText-114"/>
     <use x="439.69986" xlink:href="#STIXTwoText-105"/>
     <use x="468.199844" xlink:href="#STIXTwoText-103"/>
     <use x="516.599838" xlink:href="#STIXTwoText-104"/>
     <use x="574.299835" xlink:href="#STIXTwoText-116"/>
     <use x="605.79982" xlink:href="#STIXTwoText-32"/>
     <use x="629.299805" xlink:href="#STIXTwoText-121"/>
     <use x="677.599792" xlink:href="#STIXTwoText-101"/>
     <use x="723.999786" xlink:href="#STIXTwoText-108"/>
     <use x="752.299774" xlink:href="#STIXTwoText-108"/>
     <use x="780.599762" xlink:href="#STIXTwoText-111"/>
     <use x="831.999756" xlink:href="#STIXTwoText-119"/>
     <use x="906.89975" xlink:href="#STIXTwoText-32"/>
     <use x="930.399734" xlink:href="#STIXTwoText-40"/>
     <use x="964.699722" xlink:href="#STIXTwoText-83"/>
     <use x="1015.099716" xlink:href="#STIXTwoText-105"/>
     <use x="1043.599701" xlink:href="#STIXTwoText-70"/>
     <use x="1102.399689" xlink:href="#STIXTwoText-45"/>
     <use x="1133.899673" xlink:href="#STIXTwoText-73"/>
     <use x="1169.59967" xlink:href="#STIXTwoText-83"/>
     <use x="1219.999664" xlink:href="#STIXTwoText-70"/>
     <use x="1278.799652" xlink:href="#STIXTwoText-80"/>
     <use x="1335.699646" xlink:href="#STIXTwoText-41"/>
    </g>
   </g>
   <g id="text_15">
    <!--   type 2: bright orange (TiN-INTJ) -->
    <g transform="translate(123.84 86.97)scale(0.12 -0.12)">
     <use xlink:href="#STIXTwoText-32"/>
     <use x="23.499985" xlink:href="#STIXTwoText-32"/>
     <use x="46.999969" xlink:href="#STIXTwoText-116"/>
     <use x="78.499954" xlink:href="#STIXTwoText-121"/>
     <use x="126.799942" xlink:href="#STIXTwoText-112"/>
     <use x="180.499939" xlink:href="#STIXTwoText-101"/>
     <use x="226.899933" xlink:href="#STIXTwoText-32"/>
     <use x="250.399918" xlink:href="#STIXTwoText-50"/>
     <use x="299.899902" xlink:href="#STIXTwoText-58"/>
     <use x="325.999893" xlink:href="#STIXTwoText-32"/>
     <use x="349.499878" xlink:href="#STIXTwoText-98"/>
     <use x="401.699875" xlink:href="#STIXTwoText-114"/>
     <use x="439.69986" xlink:href="#STIXTwoText-105"/>
     <use x="468.199844" xlink:href="#STIXTwoText-103"/>
     <use x="516.599838" xlink:href="#STIXTwoText-104"/>
     <use x="574.299835" xlink:href="#STIXTwoText-116"/>
     <use x="605.79982" xlink:href="#STIXTwoText-32"/>
     <use x="629.299805" xlink:href="#STIXTwoText-111"/>
     <use x="680.699799" xlink:href="#STIXTwoText-114"/>
     <use x="718.699783" xlink:href="#STIXTwoText-97"/>
     <use x="766.699768" xlink:href="#STIXTwoText-110"/>
     <use x="824.299759" xlink:href="#STIXTwoText-103"/>
     <use x="872.699753" xlink:href="#STIXTwoText-101"/>
     <use x="919.099747" xlink:href="#STIXTwoText-32"/>
     <use x="942.599731" xlink:href="#STIXTwoText-40"/>
     <use x="976.899719" xlink:href="#STIXTwoText-84"/>
     <use x="1037.199707" xlink:href="#STIXTwoText-105"/>
     <use x="1065.699692" xlink:href="#STIXTwoText-78"/>
     <use x="1139.899673" xlink:href="#STIXTwoText-45"/>
     <use x="1171.399658" xlink:href="#STIXTwoText-73"/>
     <use x="1207.099655" xlink:href="#STIXTwoText-78"/>
     <use x="1281.299637" xlink:href="#STIXTwoText-84"/>
     <use x="1341.599625" xlink:href="#STIXTwoText-74"/>
     <use x="1381.199615" xlink:href="#STIXTwoText-41"/>
    </g>
   </g>
   <g id="text_16">
    <!--   type 1: bright red (NeT-ENTP) -->
    <g transform="translate(123.84 62.97)scale(0.12 -0.12)">
     <use xlink:href="#STIXTwoText-32"/>
     <use x="23.499985" xlink:href="#STIXTwoText-32"/>
     <use x="46.999969" xlink:href="#STIXTwoText-116"/>
     <use x="78.499954" xlink:href="#STIXTwoText-121"/>
     <use x="126.799942" xlink:href="#STIXTwoText-112"/>
     <use x="180.499939" xlink:href="#STIXTwoText-101"/>
     <use x="226.899933" xlink:href="#STIXTwoText-32"/>
     <use x="250.399918" xlink:href="#STIXTwoText-49"/>
     <use x="299.899902" xlink:href="#STIXTwoText-58"/>
     <use x="325.999893" xlink:href="#STIXTwoText-32"/>
     <use x="349.499878" xlink:href="#STIXTwoText-98"/>
     <use x="401.699875" xlink:href="#STIXTwoText-114"/>
     <use x="439.69986" xlink:href="#STIXTwoText-105"/>
     <use x="468.199844" xlink:href="#STIXTwoText-103"/>
     <use x="516.599838" xlink:href="#STIXTwoText-104"/>
     <use x="574.299835" xlink:href="#STIXTwoText-116"/>
     <use x="605.79982" xlink:href="#STIXTwoText-32"/>
     <use x="629.299805" xlink:href="#STIXTwoText-114"/>
     <use x="667.299789" xlink:href="#STIXTwoText-101"/>
     <use x="713.699783" xlink:href="#STIXTwoText-100"/>
     <use x="767.599777" xlink:href="#STIXTwoText-32"/>
     <use x="791.099762" xlink:href="#STIXTwoText-40"/>
     <use x="825.39975" xlink:href="#STIXTwoText-78"/>
     <use x="899.599731" xlink:href="#STIXTwoText-101"/>
     <use x="945.999725" xlink:href="#STIXTwoText-84"/>
     <use x="1006.299713" xlink:href="#STIXTwoText-45"/>
     <use x="1037.799698" xlink:href="#STIXTwoText-69"/>
     <use x="1100.399689" xlink:href="#STIXTwoText-78"/>
     <use x="1174.59967" xlink:href="#STIXTwoText-84"/>
     <use x="1234.899658" xlink:href="#STIXTwoText-80"/>
     <use x="1291.799652" xlink:href="#STIXTwoText-41"/>
    </g>
   </g>
   <g id="text_17">
    <!-- Bright colors - pacific types, -->
    <defs>
     <path d="M 40.90625 35 
C 49.203125 37.203125 55.09375 41.203125 55.09375 50.09375 
C 55.09375 60 48.40625 65.703125 30.59375 65.703125 
L 3.59375 65.703125 
L 3.59375 62.703125 
C 11.703125 62.703125 13.296875 61.59375 13.296875 53.59375 
L 13.296875 12.703125 
C 13.296875 4.40625 11.703125 3 3.59375 3 
L 3.59375 0 
L 34.40625 0 
C 49.296875 0 58.296875 6.296875 58.296875 17.703125 
C 58.296875 28.59375 49.40625 33.203125 40.90625 34.59375 
z
M 22.5 36.203125 
L 22.5 61.5 
C 24.5 61.703125 26.59375 61.796875 28.5 61.796875 
C 40.703125 61.796875 45.203125 57.09375 45.203125 49.296875 
C 45.203125 40.203125 41.40625 36.203125 29.296875 36.203125 
z
M 22.5 32 
L 29.5 32 
C 38.796875 32 47.796875 28.90625 47.796875 17.5 
C 47.796875 4.796875 38.296875 3.703125 29.703125 3.703125 
C 27.296875 3.703125 24.90625 3.796875 22.5 4 
z
" id="STIXTwoText-66"/>
     <path d="M 40.796875 14.796875 
C 36.296875 9 32.90625 6.5 26.40625 6.5 
C 16.09375 6.5 11.203125 15.09375 11.203125 27.296875 
C 11.203125 38.796875 16.09375 44.796875 24.203125 44.796875 
C 32.796875 44.796875 29.5 33.40625 36.90625 33.40625 
C 39.703125 33.40625 41.09375 35 41.09375 37.90625 
C 41.09375 43.703125 35.296875 48.5 25.90625 48.5 
C 11.5 48.5 3.296875 38.296875 3.296875 22.59375 
C 3.296875 8.703125 10.796875 -1 23.296875 -1 
C 34 -1 38.90625 5.296875 42.703125 13.40625 
z
" id="STIXTwoText-99"/>
     <path d="M 3.90625 16.40625 
L 4.203125 -0.796875 
L 6.296875 -0.796875 
L 8.40625 1.5 
L 8.59375 1.5 
C 11.203125 0.40625 14.203125 -1.09375 20 -1.09375 
C 29 -1.09375 36.796875 2.5 36.796875 11.90625 
C 36.796875 19.296875 31.90625 23 22.796875 27.796875 
C 14.40625 32.09375 11.09375 34.59375 11.09375 38.5 
C 11.09375 43 14.59375 45.09375 19.203125 45.09375 
C 25.296875 45.09375 29 42.203125 31.203125 32.703125 
L 33.90625 32.703125 
L 33.59375 48 
L 31.59375 48 
L 29.90625 45.90625 
L 29.796875 45.90625 
C 27.296875 47.09375 24.296875 48.5 19.296875 48.5 
C 10.703125 48.5 4 44.09375 4 35.90625 
C 4 28.5 8.09375 25 17.203125 20.40625 
C 26.5 15.796875 28.40625 13.90625 28.40625 9.203125 
C 28.40625 4.5 24.796875 2.59375 19.796875 2.59375 
C 12.40625 2.59375 8.59375 6.09375 6.5 16.40625 
z
" id="STIXTwoText-115"/>
     <path d="M 2.59375 47.296875 
L 2.59375 43.09375 
L 10.203125 43.09375 
L 10.203125 11.90625 
C 10.203125 4.09375 9.09375 2.90625 1.796875 2.90625 
L 1.796875 0 
L 28.703125 0 
L 28.703125 2.90625 
C 20.40625 2.90625 18.5 4.09375 18.5 11.90625 
L 18.5 43.09375 
L 30.703125 43.09375 
L 30.703125 47.296875 
L 18.5 47.296875 
L 18.5 56.203125 
C 18.5 64.59375 19.59375 67.59375 23.296875 67.59375 
C 28.296875 67.59375 28.796875 60 33.796875 60 
C 36.09375 60 37.90625 61.40625 37.90625 64.296875 
C 37.90625 68.796875 33.203125 71.296875 26.703125 71.296875 
C 19.703125 71.296875 16.09375 68.59375 13.40625 64 
C 10.796875 59.40625 10.203125 54.90625 10.203125 47.296875 
z
" id="STIXTwoText-102"/>
     <path d="M 7.40625 -14.203125 
C 11.40625 -12.40625 19.796875 -9 19.796875 2.296875 
C 19.796875 7.796875 17.09375 11.09375 12.09375 11.09375 
C 8.09375 11.09375 5.90625 8.40625 5.90625 5.203125 
C 5.90625 2.296875 7.5 -0.203125 11.40625 -0.203125 
C 12.5 -0.203125 13.40625 0 14.5 0.40625 
C 14.5 -7.703125 9.90625 -10.09375 6.203125 -11.703125 
z
" id="STIXTwoText-44"/>
    </defs>
    <g transform="translate(0 13.944187)scale(0.12 -0.12)">
     <use xlink:href="#STIXTwoText-66"/>
     <use x="61.799988" xlink:href="#STIXTwoText-114"/>
     <use x="99.799973" xlink:href="#STIXTwoText-105"/>
     <use x="128.299957" xlink:href="#STIXTwoText-103"/>
     <use x="176.699951" xlink:href="#STIXTwoText-104"/>
     <use x="234.399948" xlink:href="#STIXTwoText-116"/>
     <use x="265.899933" xlink:href="#STIXTwoText-32"/>
     <use x="289.399918" xlink:href="#STIXTwoText-99"/>
     <use x="333.999908" xlink:href="#STIXTwoText-111"/>
     <use x="385.399902" xlink:href="#STIXTwoText-108"/>
     <use x="413.69989" xlink:href="#STIXTwoText-111"/>
     <use x="465.099884" xlink:href="#STIXTwoText-114"/>
     <use x="503.099869" xlink:href="#STIXTwoText-115"/>
     <use x="542.599854" xlink:href="#STIXTwoText-32"/>
     <use x="566.099838" xlink:href="#STIXTwoText-45"/>
     <use x="597.599823" xlink:href="#STIXTwoText-32"/>
     <use x="621.099808" xlink:href="#STIXTwoText-112"/>
     <use x="674.799805" xlink:href="#STIXTwoText-97"/>
     <use x="722.799789" xlink:href="#STIXTwoText-99"/>
     <use x="767.39978" xlink:href="#STIXTwoText-105"/>
     <use x="795.899765" xlink:href="#STIXTwoText-102"/>
     <use x="826.599762" xlink:href="#STIXTwoText-105"/>
     <use x="855.099747" xlink:href="#STIXTwoText-99"/>
     <use x="899.699738" xlink:href="#STIXTwoText-32"/>
     <use x="923.199722" xlink:href="#STIXTwoText-116"/>
     <use x="954.699707" xlink:href="#STIXTwoText-121"/>
     <use x="1002.999695" xlink:href="#STIXTwoText-112"/>
     <use x="1056.699692" xlink:href="#STIXTwoText-101"/>
     <use x="1103.099686" xlink:href="#STIXTwoText-115"/>
     <use x="1142.59967" xlink:href="#STIXTwoText-44"/>
    </g>
    <!-- Dark colors - resolute types, -->
    <defs>
     <path d="M 3.5 65.703125 
L 3.5 62.703125 
C 11 62.703125 13.296875 61.59375 13.296875 54.296875 
L 13.296875 12.40625 
C 13.296875 4.296875 12.296875 3 3.5 3 
L 3.5 0 
L 32.09375 0 
C 53.703125 0 68 10.203125 68 33.203125 
C 68 57.59375 51.796875 65.703125 31 65.703125 
z
M 22.5 61.40625 
C 24.40625 61.59375 25.796875 61.59375 27.40625 61.59375 
C 48.09375 61.59375 57.5 51.296875 57.5 32.296875 
C 57.5 9.796875 46.59375 3.796875 28.40625 3.796875 
C 26.40625 3.796875 24.5 3.90625 22.5 4.09375 
z
" id="STIXTwoText-68"/>
    </defs>
    <g transform="translate(0 26.929688)scale(0.12 -0.12)">
     <use xlink:href="#STIXTwoText-68"/>
     <use x="72.999985" xlink:href="#STIXTwoText-97"/>
     <use x="120.999969" xlink:href="#STIXTwoText-114"/>
     <use x="158.999954" xlink:href="#STIXTwoText-107"/>
     <use x="213.199951" xlink:href="#STIXTwoText-32"/>
     <use x="236.699936" xlink:href="#STIXTwoText-99"/>
     <use x="281.299927" xlink:href="#STIXTwoText-111"/>
     <use x="332.699921" xlink:href="#STIXTwoText-108"/>
     <use x="360.999908" xlink:href="#STIXTwoText-111"/>
     <use x="412.399902" xlink:href="#STIXTwoText-114"/>
     <use x="450.399887" xlink:href="#STIXTwoText-115"/>
     <use x="489.899872" xlink:href="#STIXTwoText-32"/>
     <use x="513.399857" xlink:href="#STIXTwoText-45"/>
     <use x="544.899841" xlink:href="#STIXTwoText-32"/>
     <use x="568.399826" xlink:href="#STIXTwoText-114"/>
     <use x="606.399811" xlink:href="#STIXTwoText-101"/>
     <use x="652.799805" xlink:href="#STIXTwoText-115"/>
     <use x="692.299789" xlink:href="#STIXTwoText-111"/>
     <use x="743.699783" xlink:href="#STIXTwoText-108"/>
     <use x="771.999771" xlink:href="#STIXTwoText-117"/>
     <use x="828.999756" xlink:href="#STIXTwoText-116"/>
     <use x="860.499741" xlink:href="#STIXTwoText-101"/>
     <use x="906.899734" xlink:href="#STIXTwoText-32"/>
     <use x="930.399719" xlink:href="#STIXTwoText-116"/>
     <use x="961.899704" xlink:href="#STIXTwoText-121"/>
     <use x="1010.199692" xlink:href="#STIXTwoText-112"/>
     <use x="1063.899689" xlink:href="#STIXTwoText-101"/>
     <use x="1110.299683" xlink:href="#STIXTwoText-115"/>
     <use x="1149.799667" xlink:href="#STIXTwoText-44"/>
    </g>
    <!-- Dark/Light switch - J/P switch. -->
    <defs>
     <path d="M 35.203125 70.90625 
L 29.703125 70.90625 
L 3.59375 -8.90625 
L 9.203125 -8.90625 
z
" id="STIXTwoText-47"/>
     <path d="M 56.796875 19.5 
L 53.59375 19.5 
C 49.703125 7.90625 48.09375 4.203125 34.703125 4.203125 
L 30.09375 4.203125 
C 24.203125 4.203125 22.5 5.09375 22.5 9.5 
L 22.5 52.90625 
C 22.5 60.703125 24.203125 62.703125 32.296875 62.703125 
L 32.296875 65.703125 
L 4.203125 65.703125 
L 4.203125 62.703125 
C 12.203125 62.703125 13.296875 60.703125 13.296875 53 
L 13.296875 12.296875 
C 13.296875 4.5 12.203125 3 4.203125 3 
L 4.203125 0 
L 53.796875 0 
z
" id="STIXTwoText-76"/>
     <path d="M 18.203125 4.90625 
C 18.203125 8.203125 16.09375 11.09375 12.296875 11.09375 
C 8.59375 11.09375 6.40625 8.296875 6.40625 5 
C 6.40625 1.59375 8.296875 -0.796875 12.203125 -0.796875 
C 16.09375 -0.796875 18.203125 1.796875 18.203125 4.90625 
z
" id="STIXTwoText-46"/>
    </defs>
    <g transform="translate(0 39.791438)scale(0.12 -0.12)">
     <use xlink:href="#STIXTwoText-68"/>
     <use x="72.999985" xlink:href="#STIXTwoText-97"/>
     <use x="120.999969" xlink:href="#STIXTwoText-114"/>
     <use x="158.999954" xlink:href="#STIXTwoText-107"/>
     <use x="213.199951" xlink:href="#STIXTwoText-47"/>
     <use x="251.899948" xlink:href="#STIXTwoText-76"/>
     <use x="310.399933" xlink:href="#STIXTwoText-105"/>
     <use x="338.899918" xlink:href="#STIXTwoText-103"/>
     <use x="387.299911" xlink:href="#STIXTwoText-104"/>
     <use x="444.999908" xlink:href="#STIXTwoText-116"/>
     <use x="476.499893" xlink:href="#STIXTwoText-32"/>
     <use x="499.999878" xlink:href="#STIXTwoText-115"/>
     <use x="539.499863" xlink:href="#STIXTwoText-119"/>
     <use x="614.399857" xlink:href="#STIXTwoText-105"/>
     <use x="642.899841" xlink:href="#STIXTwoText-116"/>
     <use x="674.399826" xlink:href="#STIXTwoText-99"/>
     <use x="718.999817" xlink:href="#STIXTwoText-104"/>
     <use x="776.699814" xlink:href="#STIXTwoText-32"/>
     <use x="800.199799" xlink:href="#STIXTwoText-45"/>
     <use x="831.699783" xlink:href="#STIXTwoText-32"/>
     <use x="855.199768" xlink:href="#STIXTwoText-74"/>
     <use x="894.799759" xlink:href="#STIXTwoText-47"/>
     <use x="933.499756" xlink:href="#STIXTwoText-80"/>
     <use x="990.39975" xlink:href="#STIXTwoText-32"/>
     <use x="1013.899734" xlink:href="#STIXTwoText-115"/>
     <use x="1053.399719" xlink:href="#STIXTwoText-119"/>
     <use x="1128.299713" xlink:href="#STIXTwoText-105"/>
     <use x="1156.799698" xlink:href="#STIXTwoText-116"/>
     <use x="1188.299683" xlink:href="#STIXTwoText-99"/>
     <use x="1232.899673" xlink:href="#STIXTwoText-104"/>
     <use x="1290.59967" xlink:href="#STIXTwoText-46"/>
    </g>
   </g>
  </g>
 </g>
 <defs>
  <clipPath id="p525fe0552b">
   <rect height="432" width="309.6" x="0" y="0"/>
  </clipPath>
 </defs>
</svg>
